<svg width="595pt" height="842pt" viewBox="0 0 595 842" version="1.2" xmlns:xlink="http://www.w3.org/1999/xlink" xmlns="http://www.w3.org/2000/svg"><defs><symbol overflow="visible" id="a"><path style="stroke:none" d="M5.719-9.219H7.03v1.313H5.72Zm-2.203 0h1.312v1.313H3.516ZM6.172-2.78a6.126 6.126 0 0 1-.188-.813 5.915 5.915 0 0 0-.078-.437c-.554.062-.949.187-1.187.375-.274.21-.407.469-.407.781 0 .281.196.422.594.422.57 0 .992-.11 1.266-.328Zm-.39-3.344a2.946 2.946 0 0 1-.048-.469h3.141c.008 1.18.117 2.18.328 3 .113.492.29.809.531.953.407.262.641.391.704.391h.656V0H9.125c-.543 0-1.023-.098-1.438-.297-.386-.187-.625-.379-.718-.578-.637.375-1.649.563-3.032.563-.324 0-.656-.047-1-.141-1.18-.281-1.765-.961-1.765-2.047 0-1.113.629-2.078 1.89-2.89.626-.395 1.532-.641 2.72-.735Zm0 0"/></symbol><symbol overflow="visible" id="b"><path style="stroke:none" d="M8.969-.328c-.711.5-1.64.75-2.797.75C4.785.422 3.727.222 3-.172c-.148-.082-.242-.164-.281-.25C2.344-.14 1.848 0 1.234 0H-.172v-2.25H.86c.352 0 .692-.11 1.016-.328.27-.188.473-.461.61-.828.206-.563.628-1.102 1.265-1.625.457-.364 1.148-.547 2.078-.547.945 0 1.64.105 2.078.312.82.399 1.367.891 1.64 1.485.282.617.509 1.027.688 1.234.176.2.625.297 1.344.297h.672V0h-1.156C10.05 0 9.426-.172 9.219-.516c-.125.094-.211.157-.25.188ZM6.64-2c.195-.133.296-.281.296-.438 0-.238-.07-.425-.203-.562-.03-.04-.164-.133-.39-.281-.063-.051-.215-.07-.453-.063a.593.593 0 0 0-.422.188c-.168.199-.266.383-.297.547a.924.924 0 0 1-.156.421c.343.243.691.36 1.046.36A.94.94 0 0 0 6.641-2Zm0 0"/></symbol><symbol overflow="visible" id="c"><path style="stroke:none" d="M5.5 1.813h1.313v1.312H5.5Zm2.125-6.25c-.438-.145-.992-.258-1.656-.344A51.077 51.077 0 0 0 3.78-5c-.406-.031-1.117-.02-2.125.031v-2.25c.414-.039.844-.062 1.282-.062 1.425 0 2.695.101 3.812.297 1.633.293 3.156.652 4.563 1.078v2.25c-.532.187-1.133.476-1.797.86-.75.448-1.524.944-2.313 1.483-.68.461-1.637.797-2.875 1.016C3.191-.097 2.066 0 .953 0H-.172v-2.25h.875c1.207 0 2.219-.098 3.031-.297a7.377 7.377 0 0 0 2.204-.922 17.749 17.749 0 0 1 1.687-.969Zm0 0"/></symbol><symbol overflow="visible" id="d"><path style="stroke:none" d="M8.89-.234A4.151 4.151 0 0 1 8.376.984C7.625 2.086 6.598 2.926 5.297 3.5c-1.356.594-3.371.89-6.047.89V2.14c1.813 0 3.176-.199 4.094-.593C4.238 1.148 4.922.633 5.39 0c.425-.594.632-1.426.625-2.5 0-.844-.153-1.617-.454-2.328h3.141c.063.2.117.39.172.578.195.73.469 1.266.813 1.61.257.261.601.39 1.03.39h.657V0h-1.14c-.512 0-.962-.078-1.344-.234Zm0 0"/></symbol><symbol overflow="visible" id="e"><path style="stroke:none" d="M4.125-8.781h1.313v1.312H4.125Zm-2.203 0h1.312v1.312H1.922ZM7.532 0h-2.22c-.648 0-1.195-.316-1.64-.953-.45.637-.996.953-1.64.953H-.173v-2.25h.86c.394 0 .722-.129.984-.39.281-.282.422-.735.422-1.36v-1.281H5.25V-4c0 .625.14 1.078.422 1.36.258.261.586.39.984.39h.875Zm0 0"/></symbol><symbol overflow="visible" id="f"><path style="stroke:none" d="M5.25-3.266c0 1.075-.2 1.891-.594 2.454C4.281-.27 3.72 0 2.97 0h-3.14v-2.25h.859c.394 0 .722-.129.984-.39.281-.282.422-.735.422-1.36v-9.672H5.25Zm0 0"/></symbol><symbol overflow="visible" id="g"><path style="stroke:none" d="M1.516-13.672h3.14V0h-3.14Zm0 0"/></symbol><symbol overflow="visible" id="h"><path style="stroke:none" d="M-.172 0v-2.25h.86c.394 0 .722-.129.984-.39.281-.282.422-.735.422-1.36v-9.672H5.25V-4c0 .625.14 1.078.422 1.36.258.261.586.39.984.39h.875V0H5.313c-.649 0-1.196-.316-1.641-.953-.45.637-.996.953-1.64.953Zm0 0"/></symbol><symbol overflow="visible" id="i"><path style="stroke:none" d="M7.375-.656C6.75-.22 5.75 0 4.375 0H-.172v-2.25h3.485c.664 0 1.046-.113 1.14-.344.094-.207.14-.414.14-.625 0-.164-.23-.539-.687-1.125l-2.61-3.343a1.974 1.974 0 0 1-.343-1.844c.195-.75.594-1.223 1.188-1.422l8.328-2.719v2.25l-5.016 1.75c-.398.137-.668.34-.812.61a.756.756 0 0 0-.047.312c0 .168.086.371.265.61L8.547-3.22c.207.281.453.528.734.735.207.156.473.234.797.234h.563V0H9.39c-.907 0-1.579-.219-2.016-.656Zm0 0"/></symbol><symbol overflow="visible" id="k"><path style="stroke:none" d="M10.172-.64c.457-.57.687-1.61.687-3.11v-9.922H14v9.922c0 1.867-.29 3.219-.86 4.063-.68.988-1.796 1.695-3.359 2.124-2.054.563-4.031.598-5.937.11-1.711-.45-2.57-1.516-2.578-3.203-.012-.813.171-1.489.546-2.031H4.97a3.24 3.24 0 0 0-.578 2.03C4.42.009 4.91.442 5.859.642c.758.156 1.547.101 2.36-.157C9.164.18 9.816-.19 10.172-.64Zm0 0"/></symbol><symbol overflow="visible" id="l"><path style="stroke:none" d="m1.422-15.016.687-.156c-.312-.062-.515-.191-.609-.39a1.497 1.497 0 0 1-.14-.657c.007-.613.171-1.047.484-1.297.281-.238.804-.359 1.578-.359.383 0 .758.063 1.125.188v1.109a3.973 3.973 0 0 0-1.125-.188c-.25 0-.434.032-.547.094-.168.074-.25.25-.25.531 0 .313.188.516.563.61.132.031.289.031.468 0l.953-.172v1.14l-3.187.672Zm.094 1.344h3.14V0h-3.14Zm0 0"/></symbol><symbol overflow="visible" id="p"><path style="stroke:none" d="M6.297 0c-.188 0-.574-.004-1.156-.016C3.836-.046 2.91-.3 2.359-.78 1.785-1.27 1.5-1.898 1.5-2.671c0-.302.023-.583.078-.845.156-.945.66-1.582 1.516-1.906.633-.25 1.398-.375 2.297-.375 1.437-.008 2.43.156 2.984.5.52.324.938.934 1.25 1.828.113.336.191.742.234 1.219h1.625V0h-1.78c-.056.531-.263 1.094-.626 1.688-.555.882-1.469 1.546-2.75 1.984-1.437.476-3.793.719-7.062.719V2.14c1.406.05 2.609 0 3.609-.157 1.02-.168 1.785-.414 2.297-.734C5.766.875 6.14.457 6.297 0Zm.297-2.86c-.032-.238-.184-.472-.453-.703a1.003 1.003 0 0 0-.61-.203.956.956 0 0 0-.625.266c-.18.18-.265.352-.265.516 0 .261.101.449.312.562.207.106.414.156.625.156h1.063c0-.226-.016-.425-.047-.593Zm0 0"/></symbol><symbol overflow="visible" id="q"><path style="stroke:none" d="M6.64-2c.196-.133.298-.281.298-.438 0-.238-.07-.425-.204-.562-.03-.04-.164-.133-.39-.281-.063-.051-.215-.07-.453-.063a.593.593 0 0 0-.422.188c-.168.199-.266.383-.297.547a.924.924 0 0 1-.156.421c.343.243.691.36 1.046.36A.94.94 0 0 0 6.641-2ZM2.485-3.406c.207-.563.63-1.102 1.266-1.625.457-.364 1.148-.547 2.078-.547.926 0 1.617.105 2.078.312C9-4.766 9.613-4.03 9.75-3.062c.05.304.078.593.078.874 0 .836-.289 1.454-.86 1.86-.71.5-1.64.75-2.796.75C4.785.422 3.727.222 3-.172c-.148-.082-.242-.164-.281-.25C2.344-.14 1.848 0 1.234 0H-.172v-2.25H.86c.352 0 .692-.11 1.016-.328.27-.188.473-.461.61-.828Zm0 0"/></symbol><symbol overflow="visible" id="u"><path style="stroke:none" d="M5.938-8.219H7.25v1.313H5.937ZM14.03-2.75c0 1.023-.293 2.055-.875 3.094C12.414 1.633 11.363 2.41 10 2.672c-1.043.195-1.977.297-2.797.297-1.125 0-2.137-.133-3.031-.39-2.043-.575-3.063-1.93-3.063-4.063 0-.813.114-1.735.344-2.766H4.61c-.25.938-.375 1.797-.375 2.578C4.234-.629 4.82.102 6 .531c.32.125.71.188 1.172.188.332 0 .676-.047 1.031-.14 1.25-.325 2.035-.954 2.36-1.891a5.732 5.732 0 0 0 .296-1.891c0-.957-.296-2.086-.89-3.39h3.14c.602.96.91 2.241.922 3.843Zm0 0"/></symbol><symbol overflow="visible" id="v"><path style="stroke:none" d="M4.125 1.672h1.313v1.312H4.125Zm-2.203 0h1.312v1.312H1.922ZM5.25-3.266c0 1.075-.2 1.891-.594 2.454C4.281-.27 3.72 0 2.97 0h-3.14v-2.25h.859c.394 0 .722-.129.984-.39.281-.282.422-.735.422-1.36v-1.281H5.25Zm0 0"/></symbol><symbol overflow="visible" id="x"><path style="stroke:none" d="M13.39-.14c-.656 1.238-1.859 2.097-3.609 2.578-2.054.57-4.031.609-5.937.109-1.711-.45-2.57-1.516-2.578-3.203-.012-.813.171-1.489.546-2.031H4.97a3.24 3.24 0 0 0-.578 2.03C4.42.009 4.91.442 5.859.642c.758.156 1.547.101 2.36-.157C9.164.18 9.816-.19 10.172-.64c.457-.57.687-1.609.687-3.109v-9.922H14v9.922c0 .46.145.828.438 1.11.25.261.578.39.984.39h.828V0h-2.172c-.398 0-.625-.047-.687-.14Zm0 0"/></symbol><symbol overflow="visible" id="y"><path style="stroke:none" d="M7.625-4.438c-.438-.144-.992-.257-1.656-.343A51.077 51.077 0 0 0 3.78-5c-.406-.031-1.117-.02-2.125.031v-2.25c.414-.039.844-.062 1.282-.062 1.425 0 2.695.101 3.812.297 1.633.293 3.156.652 4.563 1.078v2.25c-.532.187-1.133.476-1.797.86-.75.448-1.524.944-2.313 1.483-.68.461-1.637.797-2.875 1.016C3.191-.097 2.066 0 .953 0H-.172v-2.25h.875c1.207 0 2.219-.098 3.031-.297a7.377 7.377 0 0 0 2.204-.922 17.749 17.749 0 0 1 1.687-.969ZM5.5-9.53h1.313v1.312H5.5Zm0 0"/></symbol><symbol overflow="visible" id="z"><path style="stroke:none" d="M3.438-1.953c1.019-.27 1.601-.64 1.75-1.11.164-.507.035-1.171-.391-1.984-.367-.719-1-1.523-1.906-2.422h3.234c.758.961 1.223 1.59 1.39 1.89.758 1.337.907 2.595.438 3.782C7.516-.68 6.227.003 4.093.266 2.958.41 1.958.32 1.094 0v-2.234c.927.355 1.708.449 2.345.28Zm0 0"/></symbol><symbol overflow="visible" id="E"><path style="stroke:none" d="M5.938-6.89H7.25v1.312H5.937Zm7.5 2.28c.238.563.382.876.437.938.77.938 1.46 1.406 2.078 1.406h.422V0h-.547c-.992-.008-1.61-.188-1.86-.531 0 .57-.273 1.336-.812 2.297-.75 1.289-1.804 2.066-3.156 2.328-1.043.195-1.977.297-2.797.297-1.125 0-2.137-.125-3.031-.375C2.129 3.43 1.109 2.078 1.109-.047c0-.82.114-1.75.344-2.781H4.61c-.25.937-.375 1.797-.375 2.578C4.234.79 4.82 1.523 6 1.953c.32.125.71.188 1.172.188.332 0 .676-.047 1.031-.141 1.25-.336 2.035-.965 2.36-1.89a5.732 5.732 0 0 0 .296-1.891c0-.957-.296-2.086-.89-3.39h3.14c.176.273.286.46.329.562Zm0 0"/></symbol><symbol overflow="visible" id="H"><path style="stroke:none" d="M6.922-11.422h1.312v1.313H6.922Zm-2.203 0H6.03v1.313H4.72ZM3.5-8.14c.82-.382 1.813-.578 2.969-.578 1.164 0 2.16.196 2.984.578.508.243.914.704 1.219 1.391.219.48.328 1.172.328 2.078 0 .742-.492 1.492-1.469 2.25.977.117 2.04.172 3.188.172h.406V0h-.938a34.15 34.15 0 0 1-3.093-.125c-1.149-.113-2.016-.316-2.61-.61-.605.294-1.48.497-2.625.61C2.93-.039 1.9 0 .766 0h-.938v-2.25h.406c1.145 0 2.207-.055 3.188-.172-.98-.758-1.469-1.508-1.469-2.25 0-.906.11-1.598.328-2.078.301-.688.707-1.148 1.219-1.39Zm2.984 4.485c.801-.301 1.204-.758 1.204-1.375 0-.457-.137-.848-.407-1.172-.148-.164-.418-.25-.812-.25-.387 0-.653.086-.797.25-.262.324-.39.715-.39 1.172 0 .617.398 1.074 1.202 1.375Zm0 0"/></symbol><symbol overflow="visible" id="I"><path style="stroke:none" d="M5.25-3.266c0 1.075-.2 1.891-.594 2.454C4.281-.27 3.72 0 2.97 0h-3.14v-2.25h.859c.394 0 .722-.129.984-.39.281-.282.422-.735.422-1.36v-1.281H5.25Zm-2.234-5.39h1.312v1.312H3.016Zm0 0"/></symbol><symbol overflow="visible" id="M"><path style="stroke:none" d="M9.86-1.375c0 1.2-.262 2.219-.782 3.063-.543.882-1.46 1.546-2.75 1.984-1.437.476-3.793.719-7.062.719V2.14c1.406.05 2.609 0 3.609-.157 1.05-.18 1.816-.421 2.297-.734C5.766.875 6.14.457 6.297 0c-.188 0-.574-.004-1.156-.016C3.836-.046 2.91-.3 2.359-.78 1.785-1.27 1.5-1.898 1.5-2.671c0-.302.023-.583.078-.845.156-.945.66-1.582 1.516-1.906.633-.25 1.398-.375 2.297-.375 1.289 0 2.242.168 2.859.5.613.336 1.07.945 1.375 1.828.156.48.234 1.18.234 2.094ZM6.593-2.859c-.032-.239-.184-.473-.453-.704a1.003 1.003 0 0 0-.61-.203.956.956 0 0 0-.625.266c-.18.18-.265.352-.265.516 0 .261.101.449.312.562.207.106.414.156.625.156h1.063c0-.226-.016-.425-.047-.593Zm0 0"/></symbol><symbol overflow="visible" id="N"><path style="stroke:none" d="M7.906 1.375H9.22v1.313H7.906Zm6.907-2.797c-.25.305-.836.574-1.75.813-1.711.46-3.665.691-5.86.703-1.367 0-2.418-.086-3.156-.25C2.117-.602 1.148-1.672 1.14-3.36c0-.813.187-1.489.562-2.032h3.14c-.304.555-.452 1.094-.452 1.625 0 .532.554.993 1.671 1.375.415.149.868.22 1.36.22 1.207 0 2.266-.134 3.172-.407 1.426-.426 2.285-.895 2.578-1.406.375-.657.46-1.286.265-1.891h3.141c.094.438.14.79.14 1.047 0 .867.157 1.523.47 1.969.289.406.753.609 1.39.609h.656V0h-1.14c-1.586 0-2.68-.473-3.282-1.422Zm0 0"/></symbol><symbol overflow="visible" id="O"><path style="stroke:none" d="M3.594-.688C3.156-.226 2.688 0 2.188 0h-2.36v-2.25h.86c.394 0 .722-.129.984-.39.289-.29.43-.743.422-1.36v-1.281h3.14v1.375c0 .21.133.605.407 1.187.156.344.472.516.953.516.414.012.695-.14.843-.453.22-.5.329-1.375.329-2.625h3.14c0 1.21.055 1.96.172 2.25.207.554.504.828.89.828.727 0 1.095-.602 1.095-1.813v-2.578h3.156v3c0 1.168-.274 2.086-.813 2.75-.418.524-1.043.852-1.875 1-.386.063-.914.094-1.578.094-.48 0-.887-.086-1.219-.25-.875-.426-1.343-.922-1.406-1.484-.2.78-.703 1.277-1.515 1.484a5.293 5.293 0 0 1-1.25.156c-1.493 0-2.481-.281-2.97-.844Zm0 0"/></symbol><symbol overflow="visible" id="P"><path style="stroke:none" d="M1.516-3.266v-10.406h3.14V-4c0 .625.145 1.078.438 1.36.25.261.578.39.984.39h.86V0H3.796c-.75 0-1.313-.27-1.688-.813-.398-.562-.593-1.378-.593-2.453Zm0 0"/></symbol><symbol overflow="visible" id="Q"><path style="stroke:none" d="M7.531 0H5.313c-.649 0-1.196-.316-1.641-.953-.45.637-.996.953-1.64.953H-.173v-2.25h.86c.394 0 .722-.129.984-.39.281-.282.422-.735.422-1.36v-1.281H5.25V-4c0 .625.14 1.078.422 1.36.258.261.586.39.984.39h.875ZM3.016-8.656h1.312v1.312H3.016Zm0 0"/></symbol><symbol overflow="visible" id="S"><path style="stroke:none" d="M8.797-2.36c-.492.344-1.024.696-1.594 1.047-.805.481-1.762.82-2.875 1.016C3.191-.097 2.066 0 .953 0H-.172v-2.25h.875c1.207 0 2.219-.098 3.031-.297a7.377 7.377 0 0 0 2.204-.922 17.749 17.749 0 0 1 1.687-.969c-.438-.144-.992-.257-1.656-.343A51.077 51.077 0 0 0 3.78-5c-.406-.031-1.117-.02-2.125.031v-2.25c.414-.039.844-.062 1.282-.062 1.425 0 2.695.101 3.812.297 1.633.293 3.156.652 4.563 1.078v2.25l-.407.156c.125.293.25.512.375.656.344.399.77.594 1.281.594h.594V0h-.765c-1.2 0-2.11-.344-2.735-1.031-.304-.332-.59-.774-.86-1.328Zm0 0"/></symbol><symbol overflow="visible" id="T"><path style="stroke:none" d="M4.125-8.781h1.313v1.312H4.125Zm-2.203 0h1.312v1.312H1.922ZM5.25-3.266c0 1.075-.2 1.891-.594 2.454C4.281-.27 3.72 0 2.97 0h-3.14v-2.25h.859c.394 0 .722-.129.984-.39.281-.282.422-.735.422-1.36v-1.281H5.25Zm0 0"/></symbol><symbol overflow="visible" id="U"><path style="stroke:none" d="M7.922 3.078h1.312v1.313H7.922Zm-2.203 0H7.03v1.313H5.72Zm5-1.156c-1.117.238-2.203.36-3.266.36-2 0-3.246-.09-3.734-.266-1.711-.618-2.57-1.653-2.578-3.11 0-.812.187-1.484.562-2.015h3.14a3.298 3.298 0 0 0-.577 2.015c.02.399.406.719 1.156.969.289.105.91.156 1.86.156 1.081 0 2.007-.101 2.78-.312.852-.239 1.282-.457 1.282-.656-.012-.145-.094-.27-.25-.375-.313-.22-.5-.36-.563-.422-.187-.22-.281-.57-.281-1.063 0-.57.14-.992.422-1.265.437-.438.8-.72 1.094-.844.445-.207 1.109-.313 1.984-.313 1.5 0 2.55.54 3.156 1.61.508.906.914 1.359 1.219 1.359h.266V0h-.547c-1 0-1.824-.523-2.469-1.578-.523-.863-.98-1.297-1.375-1.297a.599.599 0 0 0-.234.031c-.262.094-.391.258-.391.485 0 .25.164.449.5.593.383.157.578.59.578 1.297 0 1.04-1.246 1.836-3.734 2.39Zm0 0"/></symbol><symbol overflow="visible" id="V"><path style="stroke:none" d="M5.281-11.281h1.313v1.312H5.28ZM6.72-5.187c.218-.165.328-.364.328-.594a.823.823 0 0 0-.453-.766c-.157-.094-.36-.14-.61-.14-.28 0-.507.09-.671.265-.149.149-.22.367-.22.656 0 .23.098.434.298.61.132.105.343.156.625.156.3 0 .535-.063.703-.188ZM5.594 0H-.172v-2.25h5.063a3.6 3.6 0 0 0 .843-.078c.477-.113.786-.375.922-.781-.011.03-.37.046-1.078.046-1.375 0-2.305-.207-2.781-.624-.574-.5-.86-1.133-.86-1.907 0-.3.024-.582.079-.843.164-.938.671-1.57 1.515-1.907.633-.238 1.406-.363 2.313-.375 1.363-.008 2.351.156 2.968.5.477.262.895.875 1.25 1.844.196.523.297 1.29.297 2.297 0 .887-.336 1.797-1 2.734-.273.387-.824.73-1.656 1.032C7.11-.103 6.406 0 5.593 0Zm0 0"/></symbol><symbol overflow="visible" id="W"><path style="stroke:none" d="M5.5 1.813h1.313v1.312H5.5ZM8.797-2.36c-.492.343-1.024.695-1.594 1.046-.805.481-1.762.82-2.875 1.016C3.191-.097 2.066 0 .953 0H-.172v-2.25h.875c1.207 0 2.219-.098 3.031-.297a7.377 7.377 0 0 0 2.204-.922 17.749 17.749 0 0 1 1.687-.969c-.438-.144-.992-.257-1.656-.343A51.077 51.077 0 0 0 3.78-5c-.406-.031-1.117-.02-2.125.031v-2.25c.414-.039.844-.062 1.282-.062 1.425 0 2.695.101 3.812.297 1.633.293 3.156.652 4.563 1.078v2.25l-.407.156c.125.293.25.512.375.656.344.399.77.594 1.281.594h.594V0h-.765c-1.2 0-2.11-.344-2.735-1.031-.304-.332-.59-.774-.86-1.328Zm0 0"/></symbol><symbol overflow="visible" id="X"><path style="stroke:none" d="M5.938-6.64c-.711.374-1.063.82-1.063 1.327 0 .649.176 1.086.531 1.313.532.355 1.016.477 1.453.36 1.063-.282 2.27-.708 3.625-1.282v2.25c-1.105.555-2.546 1.106-4.328 1.656C4-.336 2.286 0 1.016 0H-.172v-2.25h.969c1.02 0 1.91-.117 2.672-.36-.594-.488-1.008-.921-1.235-1.296-.336-.57-.468-1.266-.406-2.078.063-.82.68-1.657 1.86-2.5.75-.52 2.347-.817 4.796-.891v2.25c-1.043-.02-1.89.14-2.546.484Zm0 0"/></symbol><symbol overflow="visible" id="aa"><path style="stroke:none" d="M10.719 1.922c-1.117.238-2.203.36-3.266.36-2 0-3.246-.09-3.734-.266-1.711-.618-2.57-1.653-2.578-3.11 0-.812.187-1.484.562-2.015h3.14a3.298 3.298 0 0 0-.577 2.015c.02.399.406.719 1.156.969.289.105.91.156 1.86.156 1.081 0 2.007-.101 2.78-.312.852-.239 1.282-.457 1.282-.656-.012-.145-.094-.27-.25-.375-.313-.22-.5-.36-.563-.422-.187-.22-.281-.57-.281-1.063 0-.57.14-.992.422-1.265.437-.438.8-.72 1.094-.844.445-.207 1.109-.313 1.984-.313 1.5 0 2.55.54 3.156 1.61.508.906.914 1.359 1.219 1.359h.266V0h-.547c-1 0-1.824-.523-2.469-1.578-.523-.863-.98-1.297-1.375-1.297a.599.599 0 0 0-.234.031c-.262.094-.391.258-.391.485 0 .25.164.449.5.593.383.157.578.59.578 1.297 0 1.04-1.246 1.836-3.734 2.39Zm0 0"/></symbol><symbol overflow="visible" id="ab"><path style="stroke:none" d="m1.438 3.266.687-.157c-.313-.062-.516-.195-.61-.39-.093-.2-.14-.418-.14-.656.008-.618.172-1.047.484-1.297.282-.243.805-.36 1.579-.36.382 0 .757.063 1.124.188v1.11a3.973 3.973 0 0 0-1.125-.188c-.25 0-.433.03-.546.093-.168.07-.25.25-.25.532 0 .312.187.515.562.609.133.031.29.031.469 0l.953-.172v1.14l-3.188.673Zm.078-16.938h3.14V0h-3.14Zm0 0"/></symbol><symbol overflow="visible" id="ac"><path style="stroke:none" d="M9.438-10.266v1.016a6.55 6.55 0 0 0-.985.047c-.469.062-.703.187-.703.375 0 .25.11.437.328.562.207.118.367.196.485.235.601.187.906.531.906 1.031-.012.648-.274 1.09-.781 1.328-.481.23-1.11.344-1.891.344-.387 0-.746-.031-1.078-.094v-1.062c.394.054.726.078 1 .078.5 0 .843-.04 1.031-.125.344-.157.516-.352.516-.594 0-.133-.23-.254-.688-.36-.375-.093-.64-.257-.797-.5-.187-.28-.281-.554-.281-.827.008-.47.238-.817.688-1.047.476-.25 1.226-.383 2.25-.407Zm3.171 9.797a5.39 5.39 0 0 1-2.171.797C9.624.441 8.645.492 7.5.484 5.656.473 4.437.38 3.844.204c-1.719-.52-2.578-1.349-2.578-2.485 0-.438.046-.813.14-1.125h3.14c-.073.199-.109.375-.109.531 0 .273.473.578 1.422.922.332.125.868.187 1.61.187.664 0 1.297-.097 1.89-.296.707-.227 1.211-.54 1.516-.938.426-.563.64-1.352.64-2.375v-8.297h3.141V-4c0 .625.145 1.078.438 1.36.258.261.586.39.984.39h.86V0h-3.141c-.438 0-.836-.156-1.188-.469Zm0 0"/></symbol><symbol overflow="visible" id="ad"><path style="stroke:none" d="M4.828-2.906c.582-.344.875-.649.875-.922 0-.219-.047-.422-.14-.61-.094-.187-.258-.28-.485-.28-.273 0-.484.132-.64.39a.77.77 0 0 0-.141.531c0 .211.047.367.14.469.114.168.243.308.391.422Zm-1.406-3.75a8.99 8.99 0 0 0-1.266-.203v-2.25C4.72-8.773 6.82-7.992 8.47-6.766c1.457 1.086 2.379 2.164 2.765 3.235.114.304.172.62.172.953 0 .937-.277 1.664-.828 2.172-.719.664-1.762 1-3.125 1-1.312 0-2.402-.305-3.266-.906C3.57-.103 2.52 0 1.031 0H-.172v-2.25h.938c.457 0 .914-.031 1.375-.094-.313-.363-.5-.61-.563-.734a2.801 2.801 0 0 1-.312-1.25c0-.656.351-1.27 1.062-1.844.258-.219.625-.379 1.094-.484Zm4.765 2.953a4.65 4.65 0 0 1-.5.984c-.242.356-.539.7-.89 1.031.164.032.312.047.437.047.72 0 1.133-.195 1.25-.593.04-.176.063-.36.063-.547 0-.219-.106-.504-.313-.86l-.046-.062Zm0 0"/></symbol><symbol overflow="visible" id="ae"><path style="stroke:none" d="M6.375-8.219h1.313v1.313H6.375ZM8.891-.234A4.151 4.151 0 0 1 8.375.984C7.625 2.086 6.598 2.926 5.297 3.5c-1.356.594-3.371.89-6.047.89V2.14c1.813 0 3.176-.199 4.094-.593C4.238 1.148 4.922.633 5.39 0c.425-.594.632-1.426.625-2.5 0-.844-.153-1.617-.454-2.328h3.141c.063.2.117.39.172.578.195.73.469 1.266.813 1.61.257.261.601.39 1.03.39h.657V0h-1.14c-.512 0-.962-.078-1.344-.234Zm0 0"/></symbol><symbol overflow="visible" id="af"><path style="stroke:none" d="M8.797-2.36c-.492.344-1.024.696-1.594 1.047-.805.481-1.762.82-2.875 1.016C3.191-.097 2.066 0 .953 0H-.172v-2.25h.875c1.207 0 2.219-.098 3.031-.297a7.377 7.377 0 0 0 2.204-.922 17.749 17.749 0 0 1 1.687-.969c-.438-.144-.992-.257-1.656-.343A51.077 51.077 0 0 0 3.78-5c-.406-.031-1.117-.02-2.125.031v-2.25c.414-.039.844-.062 1.282-.062 1.425 0 2.695.101 3.812.297 1.633.293 3.156.652 4.563 1.078v2.25l-.407.156c.125.293.25.512.375.656.344.399.77.594 1.281.594h.594V0h-.765c-1.2 0-2.11-.344-2.735-1.031-.304-.332-.59-.774-.86-1.328ZM5.5-9.53h1.313v1.312H5.5Zm0 0"/></symbol><symbol overflow="visible" id="ag"><path style="stroke:none" d="m.672-14.14.687-.157c-.312-.062-.515-.191-.609-.39a1.497 1.497 0 0 1-.14-.657c.007-.613.171-1.047.484-1.297.281-.238.804-.359 1.578-.359.383 0 .758.063 1.125.188v1.109a3.973 3.973 0 0 0-1.125-.188c-.25 0-.434.032-.547.094-.168.074-.25.25-.25.531 0 .313.188.516.563.61.132.031.289.031.468 0l.953-.172v1.14l-3.187.672Zm10.89 6.812c0 1.773-.406 3.289-1.218 4.547a6.82 6.82 0 0 1-1.156 1.375C7.894-.29 6 .266 3.5.266 2.633.266 1.89.14 1.266-.11V-2.25c.613.219 1.363.324 2.25.313.625 0 1.164-.13 1.625-.391L.734-12.391h3.188l3.75 8.422c.164-.25.305-.535.422-.86.219-.8.328-1.737.328-2.812v-6.03h3.14Zm0 0"/></symbol><symbol overflow="visible" id="ah"><path style="stroke:none" d="M13.531.156c-.386.063-.914.094-1.578.094-.48 0-.887-.086-1.219-.25-.875-.426-1.343-.922-1.406-1.484-.2.78-.703 1.277-1.515 1.484a5.293 5.293 0 0 1-1.25.156c-1.493 0-2.481-.281-2.97-.844C3.157-.226 2.689 0 2.189 0h-2.36v-2.25h.86c.394 0 .722-.129.984-.39.289-.29.43-.743.422-1.36v-1.281h3.14v1.375c0 .21.133.605.407 1.187.156.344.472.516.953.516.414.012.695-.14.843-.453.22-.5.329-1.375.329-2.625h3.14c0 1.21.055 1.96.172 2.25.207.554.504.828.89.828.727 0 1.095-.602 1.095-1.813v-2.578h3.156V-4c0 .625.14 1.078.422 1.36.257.261.586.39.984.39h.875V0h-2.36c-.468 0-.85-.148-1.14-.453-.512.324-1 .523-1.469.61Zm0 0"/></symbol><symbol overflow="visible" id="aj"><path style="stroke:none" d="M1.313-.36v-2.25c.312-.019.617-.078.921-.171.438-.125.72-.227.844-.313-.7-.164-1.156-.437-1.375-.812-.406-.739-.539-1.442-.39-2.11.207-.968.64-1.68 1.296-2.14.676-.477 1.317-.719 1.922-.719.895 0 1.77.18 2.625.531v2.188a3.02 3.02 0 0 0-1.172-.5c-.48-.102-.875-.032-1.187.218-.344.274-.512.586-.5.938 0 .543.473.918 1.422 1.125.687.148 1.398.023 2.14-.375v2.25c-.718.438-1.718.887-3 1.344-1.011.375-2.195.64-3.546.797Zm0 0"/></symbol><symbol overflow="visible" id="ak"><path style="stroke:none" d="M8.094-4.172c.156.656.422 1.168.797 1.531.25.262.593.391 1.03.391h.657V0h-1.14C8.363 0 7.671-.305 7.358-.922 6.63-.305 5.54.086 4.094.266 2.957.41 1.957.32 1.094 0v-2.234c.926.355 1.707.449 2.343.28 1.02-.257 1.602-.628 1.75-1.109.165-.507.036-1.171-.39-1.984-.367-.719-1-1.523-1.906-2.422h3.234c.758.961 1.223 1.59 1.39 1.89.27.481.462.95.579 1.407Zm0 0"/></symbol><symbol overflow="visible" id="al"><path style="stroke:none" d="M7.922 3.078h1.312v1.313H7.922Zm-2.203 0H7.03v1.313H5.72Zm8.703-3.656c-.531.926-1.977 1.64-4.328 2.14-1.156.239-2.14.36-2.953.36-1.793.008-2.934-.074-3.422-.25C2.008 1.047 1.149-.02 1.14-1.531c0-.813.187-1.489.562-2.032h3.14a3.33 3.33 0 0 0-.577 2.032c.02.449.406.804 1.156 1.062.289.094.805.14 1.547.14.851 0 1.672-.1 2.453-.312 1.445-.382 2.176-.851 2.187-1.406.008-.562-.351-.96-1.078-1.203a209.877 209.877 0 0 1-1.578-.531 4.234 4.234 0 0 1-1.11-.688c-.374-.332-.562-.836-.562-1.515-.011-.989.547-1.645 1.672-1.97a8.719 8.719 0 0 1 2.469-.359c1.02 0 1.836.137 2.453.407.945.418 1.504 1.156 1.672 2.218H12.75c-.137-.406-.54-.601-1.203-.593-.543 0-.883.09-1.016.265-.148.188-.219.313-.219.375.02.211.391.403 1.11.579 1.258.312 2.148.796 2.672 1.453.445.562.676 1.132.687 1.703 0 .449-.12.89-.36 1.328Zm0 0"/></symbol><symbol overflow="visible" id="am"><path style="stroke:none" d="M3.734-10.406h1.313v1.312H3.734Zm4.36 6.234c.156.656.422 1.168.797 1.531.25.262.593.391 1.03.391h.657V0h-1.14C8.363 0 7.671-.305 7.358-.922 6.63-.305 5.54.086 4.094.266 2.957.41 1.957.32 1.094 0v-2.234c.926.355 1.707.449 2.343.28 1.02-.257 1.602-.628 1.75-1.109.165-.507.036-1.171-.39-1.984-.367-.719-1-1.523-1.906-2.422h3.234c.758.961 1.223 1.59 1.39 1.89.27.481.462.95.579 1.407Zm0 0"/></symbol><symbol overflow="visible" id="an"><path style="stroke:none" d="M11.563-7.328c0 1.773-.407 3.289-1.22 4.547a6.82 6.82 0 0 1-1.155 1.375C7.894-.29 6 .266 3.5.266 2.633.266 1.89.14 1.266-.11V-2.25c.613.219 1.363.324 2.25.313.625 0 1.164-.13 1.625-.391L.734-12.391h3.188l3.75 8.422c.164-.25.305-.535.422-.86.219-.8.328-1.737.328-2.812v-6.03h3.14Zm0 0"/></symbol><symbol overflow="visible" id="ao"><path style="stroke:none" d="M4.375 0H-.172v-2.25h3.485c.664 0 1.046-.113 1.14-.344.094-.207.14-.414.14-.625 0-.164-.23-.539-.687-1.125l-2.61-3.343a1.974 1.974 0 0 1-.343-1.844c.195-.75.594-1.223 1.188-1.422l8.328-2.719v2.25l-5.016 1.75c-.398.137-.668.34-.812.61a.756.756 0 0 0-.047.312c0 .156.086.36.265.61l2.032 2.734c.914 1.23 1.375 2.11 1.375 2.64 0 .98-.297 1.684-.891 2.11C6.75-.22 5.75 0 4.375 0Zm0 0"/></symbol><symbol overflow="visible" id="ap"><path style="stroke:none" d="M8.219-10.547h1.328v1.313H8.219Zm1.11 2.203h1.312v1.313H9.328Zm-2.204 0h1.313v1.313H7.125Zm6.406 8.5c-.386.063-.914.094-1.578.094-.48 0-.887-.086-1.219-.25-.875-.426-1.343-.922-1.406-1.484-.2.78-.703 1.277-1.515 1.484a5.293 5.293 0 0 1-1.25.156c-1.493 0-2.481-.281-2.97-.844C3.157-.226 2.689 0 2.189 0h-2.36v-2.25h.86c.394 0 .722-.129.984-.39.289-.29.43-.743.422-1.36v-1.281h3.14v1.375c0 .21.133.605.407 1.187.156.344.472.516.953.516.414.012.695-.14.843-.453.22-.5.329-1.375.329-2.625h3.14c0 1.21.055 1.96.172 2.25.207.554.504.828.89.828.727 0 1.095-.602 1.095-1.813v-2.578h3.156V-4c0 .625.14 1.078.422 1.36.257.261.586.39.984.39h.875V0h-2.36c-.468 0-.85-.148-1.14-.453-.512.324-1 .523-1.469.61Zm0 0"/></symbol><symbol overflow="visible" id="aq"><path style="stroke:none" d="M9.016-7.469h1.312v1.313H9.016Zm-2.204 0h1.313v1.313H6.812Zm8 6.047c-.25.305-.835.574-1.75.813-1.71.46-3.664.691-5.859.703-1.367 0-2.418-.086-3.156-.25C2.117-.602 1.148-1.672 1.14-3.36c0-.813.187-1.489.562-2.032h3.14c-.304.555-.452 1.094-.452 1.625 0 .532.554.993 1.671 1.375.415.149.868.22 1.36.22 1.207 0 2.266-.134 3.172-.407 1.426-.426 2.285-.895 2.578-1.406.375-.657.46-1.286.265-1.891h3.141c.094.438.14.79.14 1.047 0 .867.157 1.523.47 1.969.289.406.753.609 1.39.609h.656V0h-1.14c-1.586 0-2.68-.473-3.282-1.422Zm0 0"/></symbol><symbol overflow="visible" id="ar"><path style="stroke:none" d="M8.219-10.547h1.328v1.313H8.219Zm1.11 2.203h1.312v1.313H9.328Zm-2.204 0h1.313v1.313H7.125ZM3.594-.688C3.156-.226 2.688 0 2.188 0h-2.36v-2.25h.86c.394 0 .722-.129.984-.39.289-.29.43-.743.422-1.36v-1.281h3.14v1.375c0 .21.133.605.407 1.187.156.344.472.516.953.516.414.012.695-.14.843-.453.22-.5.329-1.375.329-2.625h3.14c0 1.21.055 1.96.172 2.25.207.554.504.828.89.828.727 0 1.095-.602 1.095-1.813v-2.578h3.156v3c0 1.168-.274 2.086-.813 2.75-.418.524-1.043.852-1.875 1-.386.063-.914.094-1.578.094-.48 0-.887-.086-1.219-.25-.875-.426-1.343-.922-1.406-1.484-.2.78-.703 1.277-1.515 1.484a5.293 5.293 0 0 1-1.25.156c-1.493 0-2.481-.281-2.97-.844Zm0 0"/></symbol><symbol overflow="visible" id="at"><path style="stroke:none" d="M8.688-3.047c.195-.133.296-.285.296-.453 0-.238-.07-.426-.203-.563a2.654 2.654 0 0 0-.39-.28c-.063-.04-.211-.055-.438-.048-.187.012-.328.075-.422.188-.18.18-.265.418-.265.719 0 .168.03.328.093.484.145.074.395.11.75.11.227 0 .422-.051.579-.157ZM5.046-1.219c-.125-.101-.297.043-.516.438-.105.187-.156.449-.156.781v4.39h-3.14V0c0-1.3.347-2.156 1.046-2.563.875-.5 1.578-.785 2.11-.859l-.016-.203c0-.863.473-1.68 1.422-2.453.457-.375 1.148-.563 2.078-.563.926 0 1.617.11 2.078.329 1.102.492 1.719 1.218 1.844 2.187.05.313.078.61.078.89 0 .837-.29 1.454-.86 1.86-.71.492-1.64.734-2.796.734-1.625 0-2.684-.191-3.172-.578Zm0 0"/></symbol><symbol overflow="visible" id="au"><path style="stroke:none" d="M4.172 0c0 .457.3.945.906 1.469.531.457 1.488.68 2.875.672 1.781 0 3.266-.45 4.453-1.344v2.422C11.446 4 9.976 4.39 8 4.39c-2.773 0-4.637-.477-5.594-1.422C1.488 2.07 1.031 1.082 1.031 0c0-.813.254-1.555.766-2.234.476-.657.875-1.07 1.187-1.25a3.018 3.018 0 0 1-.64-.641c-.18-.25-.266-.5-.266-.75 0-.195.04-.422.125-.672.094-.32.442-.633 1.047-.937.52-.258 1.375-.391 2.563-.391 1.195 0 2.054.133 2.578.39.601.305.953.618 1.046.938.07.242.11.465.11.672 0 .25-.086.5-.25.75-.2.273-.543.602-1.031.984.238.2.535.36.89.485a7.405 7.405 0 0 0 2.469.406h.844V0h-1.031c-2.7 0-4.696-.625-5.985-1.875C4.598-1.352 4.172-.727 4.172 0Zm0 0"/></symbol><symbol overflow="visible" id="av"><path style="stroke:none" d="M5.078-1.438C3.618-.477 2.211 0 .86 0H-.17v-2.25h.843c.613 0 1.094-.133 1.437-.406.102-.07.282-.235.532-.485-.493-.382-.836-.71-1.032-.984-.18-.25-.265-.5-.265-.75 0-.207.035-.43.11-.672.093-.32.444-.633 1.062-.937.52-.258 1.375-.391 2.562-.391 1.188 0 2.04.133 2.563.39.613.305.968.618 1.062.938.07.242.11.465.11.672 0 .25-.09.5-.266.75-.188.273-.527.602-1.016.984.25.25.422.414.516.485.344.273.828.406 1.453.406h.844V0H9.297c-1.344 0-2.75-.477-4.219-1.438Zm0 0"/></symbol><symbol overflow="visible" id="aw"><path style="stroke:none" d="M5.813-11.281h1.312v1.312H5.812ZM3.5-8.141c.82-.382 1.813-.578 2.969-.578 1.164 0 2.16.196 2.984.578.508.243.914.704 1.219 1.391.219.48.328 1.172.328 2.078 0 .742-.492 1.492-1.469 2.25.977.117 2.04.172 3.188.172h.406V0h-.938a34.15 34.15 0 0 1-3.093-.125c-1.149-.113-2.016-.316-2.61-.61-.605.294-1.48.497-2.625.61C2.93-.039 1.9 0 .766 0h-.938v-2.25h.406c1.145 0 2.207-.055 3.188-.172-.98-.758-1.469-1.508-1.469-2.25 0-.906.11-1.598.328-2.078.301-.688.707-1.148 1.219-1.39Zm2.984 4.485c.801-.301 1.204-.758 1.204-1.375 0-.457-.137-.848-.407-1.172-.148-.164-.418-.25-.812-.25-.387 0-.653.086-.797.25-.262.324-.39.715-.39 1.172 0 .617.398 1.074 1.202 1.375Zm0 0"/></symbol><symbol overflow="visible" id="ax"><path style="stroke:none" d="M6.375-11.422h1.313v1.313H6.375Zm-2.203 0h1.312v1.313H4.172Zm2.547 6.235c.218-.165.328-.364.328-.594a.823.823 0 0 0-.453-.766c-.157-.094-.36-.14-.61-.14-.28 0-.507.09-.671.265-.149.149-.22.367-.22.656 0 .23.098.434.298.61.132.105.343.156.625.156.3 0 .535-.063.703-.188ZM5.594 0H-.172v-2.25h5.063a3.6 3.6 0 0 0 .843-.078c.477-.113.786-.375.922-.781-.011.03-.37.046-1.078.046-1.375 0-2.305-.207-2.781-.624-.574-.5-.86-1.133-.86-1.907 0-.3.024-.582.079-.843.164-.938.671-1.57 1.515-1.907.633-.238 1.406-.363 2.313-.375 1.363-.008 2.351.156 2.968.5.477.262.895.875 1.25 1.844.196.523.297 1.29.297 2.297 0 .887-.336 1.797-1 2.734-.273.387-.824.73-1.656 1.032C7.11-.103 6.406 0 5.593 0Zm0 0"/></symbol><symbol overflow="visible" id="ay"><path style="stroke:none" d="M3.328 0h-3.5v-2.25h2.656v-11.422h3.141v10.485C6.438-4.196 7.305-5 8.235-5.595c.956-.613 1.894-.922 2.812-.922 1.082 0 1.973.153 2.672.454 1.344.585 2.015 1.437 2.015 2.562 0 .293.207.605.625.938.27.21.524.312.766.312h.578V0h-.75c-1.105 0-1.918-.352-2.437-1.063a2.617 2.617 0 0 1-.391.266c-.98.531-2.668.797-5.063.797Zm5.14-2.25h.61c.914 0 1.742-.145 2.485-.438.687-.28 1.03-.582 1.03-.906 0-.156-.171-.312-.515-.469a2.288 2.288 0 0 0-.89-.203c-.45.012-.997.25-1.641.72-.387.292-.746.726-1.078 1.296Zm0 0"/></symbol><symbol overflow="visible" id="az"><path style="stroke:none" d="M3.016 1.813h1.312v1.312H3.016ZM5.25-3.266c0 1.075-.2 1.891-.594 2.454C4.281-.27 3.72 0 2.97 0h-3.14v-2.25h.859c.394 0 .722-.129.984-.39.281-.282.422-.735.422-1.36v-1.281H5.25Zm0 0"/></symbol><symbol overflow="visible" id="aA"><path style="stroke:none" d="M5.39 0c.426-.602.633-1.438.626-2.5 0-.844-.153-1.617-.454-2.328h3.141c.29.875.438 1.652.438 2.328 0 1.555-.258 2.71-.766 3.484-.75 1.102-1.777 1.942-3.078 2.516-1.356.594-3.371.89-6.047.89V2.14c1.813 0 3.176-.199 4.094-.593C4.227 1.16 4.91.645 5.39 0Zm0 0"/></symbol><symbol overflow="visible" id="aB"><path style="stroke:none" d="M11.563-7.328c0 1.773-.407 3.289-1.22 4.547a6.82 6.82 0 0 1-1.155 1.375C7.894-.29 6 .266 3.5.266 2.633.266 1.89.14 1.266-.11V-2.25c.613.219 1.363.324 2.25.313.625 0 1.164-.13 1.625-.391L.734-12.391h3.188l3.75 8.422c.164-.25.305-.535.422-.86.219-.8.328-1.737.328-2.812v-6.03h3.14ZM1.437 3.266l.688-.157c-.313-.062-.516-.195-.61-.39-.093-.2-.14-.418-.14-.656.008-.618.172-1.047.484-1.297.282-.243.805-.36 1.579-.36.382 0 .757.063 1.124.188v1.11a3.973 3.973 0 0 0-1.125-.188c-.25 0-.433.03-.546.093-.168.07-.25.25-.25.532 0 .312.187.515.562.609.133.031.29.031.469 0l.953-.172v1.14l-3.188.673Zm0 0"/></symbol><symbol overflow="visible" id="aC"><path style="stroke:none" d="M13.734-2.203c.426.023.704-.129.829-.453.218-.582.328-1.457.328-2.625h3.14c0 1.21.055 1.96.172 2.25.207.554.504.828.89.828.739 0 1.11-.602 1.11-1.813v-2.578h3.14V-4c0 .625.145 1.078.438 1.36.25.261.578.39.985.39h.859V0h-2.36c-.468 0-.85-.148-1.14-.453-.512.324-1 .523-1.469.61-.355.062-.883.093-1.578.093-.469 0-.875-.086-1.219-.25-.875-.426-1.34-.922-1.39-1.484-.211.78-.719 1.277-1.532 1.484a5.293 5.293 0 0 1-1.25.156c-.5 0-.949-.265-1.343-.797 0 1.07-.23 1.957-.688 2.657-.71 1.062-1.75 1.78-3.125 2.156-.562.144-1.277.219-2.14.219-1.168 0-2.059-.106-2.672-.313C2 3.484 1.14 2.188 1.14.188c0-1.145.304-2.243.921-3.297H5.22C4.582-1.9 4.266-.801 4.266.187c.007.938.43 1.524 1.265 1.766.227.063.5.094.813.094.633 0 1.18-.172 1.64-.516.52-.386.895-.777 1.125-1.172a3.902 3.902 0 0 0 .516-1.937c0-.719-.055-1.266-.156-1.64l-.563-2.063h3.156l.313 1.375c.094.437.223.836.39 1.187.145.336.47.508.97.516Zm0 0"/></symbol><symbol overflow="visible" id="aD"><path style="stroke:none" d="M4.125 1.672h1.313v1.312H4.125Zm-2.203 0h1.312v1.312H1.922ZM7.532 0h-2.22c-.648 0-1.195-.316-1.64-.953-.45.637-.996.953-1.64.953H-.173v-2.25h.86c.394 0 .722-.129.984-.39.281-.282.422-.735.422-1.36v-1.281H5.25V-4c0 .625.14 1.078.422 1.36.258.261.586.39.984.39h.875Zm0 0"/></symbol><symbol overflow="visible" id="aE"><path style="stroke:none" d="m2.016-8.422.687-.156c-.312-.063-.515-.192-.61-.39a1.497 1.497 0 0 1-.14-.657c.008-.613.172-1.047.484-1.297.282-.238.805-.36 1.579-.36.382 0 .757.063 1.125.188v1.11a3.973 3.973 0 0 0-1.125-.188c-.25 0-.434.031-.547.094-.168.074-.25.25-.25.531 0 .313.187.516.562.61.133.03.29.03.469 0l.953-.172v1.14l-3.187.672ZM5.25-3.266c0 1.075-.2 1.891-.594 2.454C4.281-.27 3.72 0 2.97 0h-3.14v-2.25h.859c.394 0 .722-.129.984-.39.281-.282.422-.735.422-1.36v-1.281H5.25Zm0 0"/></symbol><symbol overflow="visible" id="aF"><path style="stroke:none" d="M4.844-9.219h1.312v1.313H4.844Zm-2.203 0h1.312v1.313H2.641Zm2.375 5c-.5 0-.797.125-.891.375-.086.262-.121.621-.11 1.078a.96.96 0 0 0 .516.891c.188.105.442.156.766.156.226 0 .46-.078.703-.234.383-.25.578-.504.578-.766 0-.238-.14-.504-.422-.797-.437-.468-.82-.703-1.14-.703Zm-.329-2.234c1.29 0 2.555.469 3.797 1.406.832.637 1.243 1.434 1.235 2.39-.012 1-.446 1.81-1.297 2.423-.711.5-1.75.754-3.125.765-1.012 0-1.922-.12-2.734-.36C1.437-.16.867-1.065.859-2.546c0-1.062.11-1.82.329-2.281.53-1.082 1.695-1.625 3.5-1.625Zm0 0"/></symbol><symbol overflow="visible" id="aG"><path style="stroke:none" d="M14.5-11.281h1.313v1.312H14.5Zm4.203 8.906c.727.086 1.563.125 2.5.125h.406V0h-.937a33.79 33.79 0 0 1-3.094-.125c-.375-.031-.734-.07-1.078-.125l-.625.25c-.586.332-2.965.504-7.14.516-2.376 0-3.938-.086-4.688-.25C2.117-.172 1.148-1.18 1.14-2.766c0-.8.187-1.472.562-2.015h3.14c-.304.554-.452 1.09-.452 1.61 0 .417.554.82 1.671 1.202.415.149 1.38.219 2.891.219 2.02 0 3.219-.031 3.594-.094a1.215 1.215 0 0 1-.203-.218C11.52-3 11.109-3.978 11.109-5c0-.594.07-1.082.22-1.469.28-.781.757-1.36 1.437-1.734.601-.344 1.332-.516 2.187-.516 1.164 0 2.16.196 2.985.578.507.243.914.704 1.218 1.391.219.48.328 1.172.328 2.078 0 .762-.261 1.527-.78 2.297ZM15.5-3.188c.438-.562.656-1.175.656-1.843 0-.426-.148-.817-.437-1.172-.149-.176-.356-.266-.625-.266-.281 0-.5.125-.656.375-.149.242-.22.59-.22 1.047 0 .586.192 1.063.579 1.438.156.148.39.289.703.421Zm0 0"/></symbol><symbol overflow="visible" id="aH"><path style="stroke:none" d="M7.625-4.438c-.438-.144-.992-.257-1.656-.343A51.077 51.077 0 0 0 3.78-5c-.406-.031-1.117-.02-2.125.031v-2.25c.414-.039.844-.062 1.282-.062 1.425 0 2.695.101 3.812.297 1.633.293 3.156.652 4.563 1.078v2.25c-.532.187-1.133.476-1.797.86-.75.448-1.524.944-2.313 1.483-.68.461-1.637.797-2.875 1.016C3.191-.097 2.066 0 .953 0H-.172v-2.25h.875c1.207 0 2.219-.098 3.031-.297a7.377 7.377 0 0 0 2.204-.922 17.749 17.749 0 0 1 1.687-.969Zm0 0"/></symbol><symbol overflow="visible" id="aI"><path style="stroke:none" d="M8.125-1.625h1.313v1.313H8.124Zm3.031-3.438c-1.96-.113-3.511.293-4.656 1.22-1.188.948-1.781 2.011-1.781 3.187 0 .707.3 1.375.906 2 .531.531 1.488.797 2.875.797 1.758 0 3.242-.45 4.453-1.344v2.422c-.96.781-2.43 1.172-4.406 1.172-2.563 0-4.434-.586-5.61-1.75C2.031 1.742 1.579.645 1.579-.656c0-1.051.406-2.078 1.219-3.078.601-.727 1.484-1.32 2.64-1.782-.492-.02-1.167.028-2.03.141-.794.117-1.47.293-2.032.531v-2.25c1.594-.363 2.973-.547 4.14-.547 2.063 0 3.942.11 5.641.329Zm0 0"/></symbol><symbol overflow="visible" id="aJ"><path style="stroke:none" d="M11.016-.328c-.711.5-1.641.75-2.797.75-1.625 0-2.684-.2-3.172-.594-.125-.101-.297.043-.516.438-.105.187-.156.453-.156.796v3.329h-3.14V1.062c0-1.312.347-2.171 1.046-2.578.875-.5 1.578-.78 2.11-.843l-.016-.204c0-.874.473-1.695 1.422-2.468.457-.364 1.148-.547 2.078-.547.926 0 1.617.105 2.078.312.813.368 1.363.86 1.656 1.485.282.617.504 1.027.672 1.234.176.2.625.297 1.344.297h.672V0h-1.14c-1.055 0-1.684-.172-1.891-.516-.125.094-.211.157-.25.188ZM8.687-2c.196-.133.297-.281.297-.438 0-.238-.07-.425-.203-.562a2.654 2.654 0 0 0-.39-.281c-.063-.051-.211-.07-.438-.063-.187.012-.328.074-.422.188-.18.18-.265.422-.265.734 0 .156.03.313.093.469.145.086.395.125.75.125A.94.94 0 0 0 8.688-2Zm0 0"/></symbol><symbol overflow="visible" id="aL"><path style="stroke:none" d="M6.172-2.781a6.126 6.126 0 0 1-.188-.813 5.915 5.915 0 0 0-.078-.437c-.554.062-.949.187-1.187.375-.274.21-.407.469-.407.781 0 .281.196.422.594.422.57 0 .992-.11 1.266-.328Zm-.39-3.344a2.946 2.946 0 0 1-.048-.469h3.141c.008 1.18.117 2.18.328 3 .113.492.29.809.531.953.407.262.641.391.704.391h.656V0H9.125c-.543 0-1.023-.098-1.438-.297-.386-.187-.625-.379-.718-.578-.637.375-1.649.563-3.032.563-.324 0-.656-.047-1-.141-1.18-.281-1.765-.961-1.765-2.047 0-1.113.629-2.078 1.89-2.89.626-.395 1.532-.641 2.72-.735Zm0 0"/></symbol><symbol overflow="visible" id="aM"><path style="stroke:none" d="M4.172-11.734h1.312v1.312H4.172Zm1.766 5.093c-.711.375-1.063.82-1.063 1.329 0 .648.176 1.085.531 1.312.532.355 1.016.477 1.453.36 1.063-.282 2.27-.708 3.625-1.282v2.25c-1.105.555-2.546 1.106-4.328 1.656C4-.336 2.286 0 1.016 0H-.172v-2.25h.969c1.02 0 1.91-.117 2.672-.36-.594-.488-1.008-.921-1.235-1.296-.336-.57-.468-1.266-.406-2.078.063-.82.68-1.657 1.86-2.5.75-.52 2.347-.817 4.796-.891v2.25c-1.043-.02-1.89.14-2.546.484Zm0 0"/></symbol><symbol overflow="visible" id="aQ"><path style="stroke:none" d="M1.516-3.266v-10.406h3.14V-4c0 .625.145 1.078.438 1.36.25.261.578.39.984.39h.86V0H3.796c-.75 0-1.313-.27-1.688-.813-.398-.562-.593-1.378-.593-2.453Zm-.094-11.75.687-.156c-.312-.062-.515-.191-.609-.39a1.497 1.497 0 0 1-.14-.657c.007-.613.171-1.047.484-1.297.281-.238.804-.359 1.578-.359.383 0 .758.063 1.125.188v1.109a3.973 3.973 0 0 0-1.125-.188c-.25 0-.434.032-.547.094-.168.074-.25.25-.25.531 0 .313.188.516.563.61.132.031.289.031.468 0l.953-.172v1.14l-3.187.672Zm0 0"/></symbol><symbol overflow="visible" id="aR"><path style="stroke:none" d="M8.469-2.25h.61c.913 0 1.741-.145 2.483-.438.688-.28 1.032-.582 1.032-.906 0-.156-.172-.312-.516-.469a2.288 2.288 0 0 0-.89-.203c-.45.012-.997.25-1.641.72-.387.292-.746.726-1.078 1.296ZM9.063 0H-.172v-2.25h2.656v-11.422h3.141v10.485C6.438-4.196 7.305-5 8.235-5.595c.956-.613 1.894-.922 2.812-.922 1.082 0 1.973.153 2.672.454 1.344.585 2.015 1.437 2.015 2.562 0 1.242-.539 2.14-1.609 2.703-1.023.531-2.71.797-5.063.797Zm0 0"/></symbol><symbol overflow="visible" id="m"><path style="stroke:none" d="M3.266-12.172H1.203v2.594H.141v1.797h1.062v5.812c0 1.516.531 2.047 2.094 2.078h.265c.25 0 .376 0 .797-.015l.188-.016v-1.922c-.281.047-.297.047-.438.047-.718 0-.843-.11-.843-.781v-5.203h1.28v-1.797h-1.28Zm0 0"/></symbol><symbol overflow="visible" id="n"><path style="stroke:none" d="M3-12.922H.953V0H3v-5.484c0-1.375.64-2.22 1.688-2.22.921 0 1.328.563 1.328 1.891V0h2.046v-6.625C8.063-8.563 7-9.828 5.36-9.828c-1.125 0-1.937.547-2.359 1.562Zm0 0"/></symbol><symbol overflow="visible" id="o"><path style="stroke:none" d="M5.578-2.828c-.203.687-.672 1.047-1.36 1.047-1.124 0-1.687-.703-1.812-2.313h5.39v-.437c0-3.407-1.327-5.297-3.734-5.297-2.328 0-3.718 1.875-3.718 5C.344-1.578 1.734.25 4.172.25c.89 0 1.625-.25 2.219-.766.671-.562.968-1.125 1.312-2.312Zm-3.11-2.906c.173-1.391.657-2.032 1.579-2.032.937 0 1.484.672 1.625 2.032Zm0 0"/></symbol><symbol overflow="visible" id="r"><path style="stroke:none" d="M11.36-9.578H9.233L7.984-2.61 6.781-9.58H4.72l-1.14 6.97-1.235-6.97H.14L2.359 0h2.125L5.72-7.078 6.969 0h2.125Zm0 0"/></symbol><symbol overflow="visible" id="s"><path style="stroke:none" d="M2.656-6.484c.14-.97.5-1.329 1.375-1.329.844 0 1.282.36 1.282 1.079 0 .468-.22.703-.72.796l-1.859.344C1.266-5.328.438-4.234.438-2.562.438-.829 1.375.25 2.874.25c1.031 0 1.672-.36 2.484-1.39.063.53.079.671.204 1.14H7.78v-.375c-.328-.14-.453-.547-.453-1.5v-5.188c0-1.75-1.172-2.765-3.187-2.765-1.375 0-2.282.39-2.844 1.219-.344.562-.5 1.062-.61 2.125Zm2.656 3.046c0 1.047-.812 1.891-1.828 1.891-.609 0-.984-.453-.984-1.172 0-.828.36-1.203 1.406-1.422.828-.156 1.14-.265 1.406-.515Zm0 0"/></symbol><symbol overflow="visible" id="t"><path style="stroke:none" d="M8.016-9.578H5.812L4.141-2.453 2.5-9.578H.203L3 0h2.188Zm0 0"/></symbol><symbol overflow="visible" id="w"><path style="stroke:none" d="M2.953-12.922H.906V0h2.016v-1.266C3.422-.234 4.14.25 5.219.25c2.015 0 3.312-2 3.312-5.14 0-2.97-1.312-4.938-3.297-4.938-1 0-1.656.437-2.28 1.547Zm1.703 5.297c1.078 0 1.75 1.078 1.75 2.875s-.672 2.938-1.718 2.938c-1.157 0-1.813-1.047-1.813-2.891 0-1.906.64-2.922 1.781-2.922Zm0 0"/></symbol><symbol overflow="visible" id="A"><path style="stroke:none" d="M1.031-9.578V0h2.047v-9.578Zm2.047-3.469H1.031v2.344h2.047Zm0 0"/></symbol><symbol overflow="visible" id="B"><path style="stroke:none" d="M2.938-9.578H.952V0H3v-5.484c0-1.375.64-2.22 1.688-2.22.921 0 1.328.563 1.328 1.891V0h2.046v-6.625c0-1.969-1.062-3.203-2.718-3.203-1.125 0-1.86.515-2.407 1.703Zm0 0"/></symbol><symbol overflow="visible" id="C"><path style="stroke:none" d="M7.438-6.656C7.266-7.984 7-8.61 6.359-9.125 5.797-9.578 4.97-9.828 4-9.828c-1.313 0-2.25.453-2.797 1.375a3.636 3.636 0 0 0-.469 1.812c0 1.594.97 2.5 3.157 2.922 1.171.235 1.703.547 1.703 1.063 0 .61-.516.984-1.344.984-1.125 0-1.64-.437-1.672-1.39H.453C.578-1.75.828-1.157 1.516-.579c.64.531 1.593.828 2.656.828 2.187 0 3.5-1.219 3.5-3.234 0-.563-.125-1.063-.36-1.47-.406-.655-1.5-1.234-2.859-1.5C3.266-6.171 2.75-6.5 2.75-7c0-.594.438-.906 1.25-.906.906 0 1.25.312 1.406 1.25Zm0 0"/></symbol><symbol overflow="visible" id="D"><path style="stroke:none" d="M8.14-12.922H6.079v4.64C5.453-9.39 4.812-9.827 3.797-9.827 1.797-9.828.5-7.86.5-4.891.5-1.75 1.797.25 3.813.25c1.078 0 1.796-.469 2.312-1.516V0h2.016ZM4.423-7.625c1.11 0 1.734 1.063 1.734 2.922 0 1.844-.64 2.89-1.797 2.89-1.062 0-1.734-1.14-1.734-2.937 0-1.844.656-2.875 1.797-2.875Zm0 0"/></symbol><symbol overflow="visible" id="F"><path style="stroke:none" d="M4.578-9.828C2.062-9.828.5-7.891.5-4.766.5-1.734 2.094.25 4.516.25 6.953.25 8.53-1.734 8.53-4.766c0-3.062-1.562-5.062-3.953-5.062Zm-.047 2.125c1.203 0 1.875 1.047 1.875 2.922 0 1.89-.672 2.906-1.89 2.906-1.22 0-1.891-1.016-1.891-2.906 0-1.922.672-2.922 1.906-2.922Zm0 0"/></symbol><symbol overflow="visible" id="G"><path style="stroke:none" d="M3.328-7.781h1.375v-1.797H3.328v-.375c0-.922.078-1.047.735-1.063h.593v-2.03c-.281-.017-.562-.032-.968-.032-1.657 0-2.407.844-2.407 2.734v.766H.141v1.797h1.14V0h2.047Zm0 0"/></symbol><symbol overflow="visible" id="J"><path style="stroke:none" d="M5.64-3.484c-.093 1-.656 1.671-1.452 1.671-1.032 0-1.563-.984-1.563-2.953 0-1.937.578-2.937 1.688-2.937.75 0 1.14.469 1.343 1.547h2.078c-.078-.953-.203-1.422-.515-1.985-.594-1.078-1.688-1.687-3-1.687C1.89-9.828.5-7.922.5-4.656.5-1.516 1.797.25 4.125.25c2.031 0 3.297-1.313 3.594-3.734Zm0 0"/></symbol><symbol overflow="visible" id="K"><path style="stroke:none" d="M.938 0h2.046v-4.984c0-1.547.641-2.282 2-2.282.235 0 .344 0 .532.032v-2.563l-.094-.015c-.219-.016-.219-.016-.328-.016-1 0-1.563.5-2.172 1.969v-1.72H.937Zm0 0"/></symbol><symbol overflow="visible" id="L"><path style="stroke:none" d="M6.172-9.578v1.484C5.64-9.328 4.969-9.828 3.875-9.828 1.891-9.828.594-7.86.594-4.875.594-1.844 1.89.047 3.954.047 5 .047 5.53-.328 6.077-1.437v1.234c0 1.531-.5 2.187-1.703 2.187-.578 0-1.016-.171-1.188-.453-.093-.125-.124-.234-.187-.5H.75c.125.907.281 1.313.688 1.782.625.718 1.625 1.093 2.875 1.093 1.328 0 2.406-.422 3.03-1.187.563-.688.813-1.656.813-3.219v-9.078ZM4.375-7.625c1.031 0 1.734 1.14 1.734 2.813 0 1.75-.64 2.75-1.734 2.75-1.047 0-1.656-1.016-1.656-2.75 0-1.75.625-2.813 1.656-2.813Zm0 0"/></symbol><symbol overflow="visible" id="R"><path style="stroke:none" d="M3.328-7.781h1.36v-1.797h-1.36v-.375c0-.922.078-1.047.735-1.063h.578v-2.03a16.137 16.137 0 0 0-.954-.032c-1.656 0-2.406.844-2.406 2.734v.766H.141v1.797h1.14V0h2.047Zm2.61-1.797V0h2.046v-9.578Zm2.046-3.469H5.938v2.344h2.046Zm0 0"/></symbol><symbol overflow="visible" id="Y"><path style="stroke:none" d="M8.047-9.578H6v5.531c0 1.344-.625 2.172-1.64 2.172-.891 0-1.329-.594-1.329-1.766v-5.937H.97v6.297c0 2.25.953 3.531 2.656 3.531 1.14 0 1.906-.516 2.438-1.656V0h1.984Zm0 0"/></symbol><symbol overflow="visible" id="Z"><path style="stroke:none" d="M7.953-9.578H5.766L4.14-2.453 2.453-9.578H.141L3.047.39c-.203 1.171-.453 1.453-1.344 1.453-.172 0-.266 0-.422-.047v2.016c.61.046.719.046.985.046.921 0 1.406-.187 1.765-.671.328-.438.61-1.204 1.219-3.344Zm0 0"/></symbol><symbol overflow="visible" id="ai"><path style="stroke:none" d="M3.078-12.922H1.031V0h2.047Zm0 0"/></symbol><symbol overflow="visible" id="as"><path style="stroke:none" d="M2.922-9.578H.937V0h2.047v-5.828c0-1.25.438-1.875 1.313-1.875.906 0 1.234.5 1.234 1.937V0h2.047v-5.734c0-1.282.484-1.97 1.39-1.97.766 0 1.173.641 1.173 1.891V0h2.046v-6.625c0-1.922-1.062-3.203-2.64-3.203-.985 0-1.578.422-2.203 1.531-.625-1.172-1.14-1.531-2.125-1.531-1.11 0-1.797.515-2.297 1.703Zm0 0"/></symbol><symbol overflow="visible" id="aK"><path style="stroke:none" d="m3.078-3.031.86-1.078L5.812 0h2.485l-2.86-5.875 2.766-3.703H5.672l-2.594 3.64v-6.984H1.031V0h2.047Zm0 0"/></symbol><symbol overflow="visible" id="aN"><path style="stroke:none" d="M2.89-9.578H.923V3.719h2.047v-5C3.516-.188 4.14.25 5.203.25c2.031 0 3.328-2 3.328-5.14 0-3-1.312-4.938-3.312-4.938-1.063 0-1.735.484-2.328 1.687Zm1.75 1.953c1.094 0 1.766 1.078 1.766 2.86 0 1.812-.672 2.952-1.718 2.952-1.157 0-1.797-1.015-1.797-2.875 0-1.953.593-2.937 1.75-2.937Zm0 0"/></symbol><symbol overflow="visible" id="aO"><path style="stroke:none" d="M3.328-7.781h1.36v-1.797h-1.36v-.375c0-.922.078-1.047.735-1.063h.578v-2.03a16.137 16.137 0 0 0-.954-.032c-1.656 0-2.406.844-2.406 2.734v.766H.141v1.797h1.14V0h2.047Zm4.656-5.14H5.938V0h2.046Zm0 0"/></symbol><symbol overflow="visible" id="aP"><path style="stroke:none" d="m5.313-4.875 2.593-4.703H5.47L4.156-6.781 2.828-9.578h-2.5l2.563 4.703L.219 0h2.5l1.344-2.875L5.438 0h2.546Zm0 0"/></symbol><symbol overflow="visible" id="aS"><path style="stroke:none" d="m3.672-.469 1.61.156V0h-4.22v-.313l1.61-.156v-6.406l-1.594.563v-.313l2.297-1.297h.297Zm0 0"/></symbol></defs><g style="fill:#000;fill-opacity:1"><use xlink:href="#a" x="482.2" y="47.8" width="100%" height="100%"/><use xlink:href="#b" x="493.108" y="47.8" width="100%" height="100%"/></g><use xlink:href="#c" x="505.114" y="47.8" width="100%" height="100%" style="fill:#000;fill-opacity:1"/><g style="fill:#000;fill-opacity:1"><use xlink:href="#d" x="518.092" y="47.8" width="100%" height="100%"/><use xlink:href="#e" x="529.288" y="47.8" width="100%" height="100%"/></g><use xlink:href="#f" x="536.596" y="47.8" width="100%" height="100%" style="fill:#000;fill-opacity:1"/><use xlink:href="#g" x="543.382" y="47.8" width="100%" height="100%" style="fill:#000;fill-opacity:1"/><g style="fill:#000;fill-opacity:1"><use xlink:href="#a" x="359.7" y="47.8" width="100%" height="100%"/><use xlink:href="#b" x="370.608" y="47.8" width="100%" height="100%"/></g><use xlink:href="#h" x="382.686" y="47.8" width="100%" height="100%" style="fill:#000;fill-opacity:1"/><use xlink:href="#i" x="389.994" y="47.8" width="100%" height="100%" style="fill:#000;fill-opacity:1"/><use xlink:href="#f" x="400.398" y="47.8" width="100%" height="100%" style="fill:#000;fill-opacity:1"/><use xlink:href="#g" x="407.184" y="47.8" width="100%" height="100%" style="fill:#000;fill-opacity:1"/><use xlink:href="#j" x="213.5" y="47.8" width="100%" height="100%" style="fill:#000;fill-opacity:1"/><g style="fill:#000;fill-opacity:1"><use xlink:href="#a" x="218.5" y="47.8" width="100%" height="100%"/><use xlink:href="#b" x="229.408" y="47.8" width="100%" height="100%"/></g><use xlink:href="#c" x="241.486" y="47.8" width="100%" height="100%" style="fill:#000;fill-opacity:1"/><g style="fill:#000;fill-opacity:1"><use xlink:href="#d" x="254.464" y="47.8" width="100%" height="100%"/><use xlink:href="#e" x="265.66" y="47.8" width="100%" height="100%"/></g><use xlink:href="#f" x="272.968" y="47.8" width="100%" height="100%" style="fill:#000;fill-opacity:1"/><use xlink:href="#g" x="279.664" y="47.8" width="100%" height="100%" style="fill:#000;fill-opacity:1"/><g style="fill:#000;fill-opacity:1"><use xlink:href="#a" x="77.5" y="47.8" width="100%" height="100%"/><use xlink:href="#b" x="88.408" y="47.8" width="100%" height="100%"/></g><use xlink:href="#h" x="100.486" y="47.8" width="100%" height="100%" style="fill:#000;fill-opacity:1"/><use xlink:href="#i" x="107.794" y="47.8" width="100%" height="100%" style="fill:#000;fill-opacity:1"/><use xlink:href="#f" x="118.27" y="47.8" width="100%" height="100%" style="fill:#000;fill-opacity:1"/><use xlink:href="#g" x="124.966" y="47.8" width="100%" height="100%" style="fill:#000;fill-opacity:1"/><g style="fill:#000;fill-opacity:1"><use xlink:href="#k" x="539.8" y="71.1" width="100%" height="100%"/><use xlink:href="#l" x="555.406" y="71.1" width="100%" height="100%"/></g><use xlink:href="#m" x="313.8" y="69.8" width="100%" height="100%" style="fill:#000;fill-opacity:1"/><use xlink:href="#n" x="318.696" y="69.8" width="100%" height="100%" style="fill:#000;fill-opacity:1"/><use xlink:href="#o" x="327.696" y="69.8" width="100%" height="100%" style="fill:#000;fill-opacity:1"/><g style="fill:#000;fill-opacity:1"><use xlink:href="#a" x="256.6" y="71.1" width="100%" height="100%"/><use xlink:href="#c" x="267.508" y="71.1" width="100%" height="100%"/></g><use xlink:href="#p" x="280.486" y="71.1" width="100%" height="100%" style="fill:#000;fill-opacity:1"/><use xlink:href="#q" x="291.772" y="71.1" width="100%" height="100%" style="fill:#000;fill-opacity:1"/><use xlink:href="#r" x="23.1" y="69.8" width="100%" height="100%" style="fill:#000;fill-opacity:1"/><use xlink:href="#s" x="34.404" y="69.8" width="100%" height="100%" style="fill:#000;fill-opacity:1"/><use xlink:href="#t" x="42.396" y="69.8" width="100%" height="100%" style="fill:#000;fill-opacity:1"/><use xlink:href="#o" x="50.388" y="69.8" width="100%" height="100%" style="fill:#000;fill-opacity:1"/><use xlink:href="#u" x="517.7" y="94.3" width="100%" height="100%" style="fill:#000;fill-opacity:1"/><use xlink:href="#p" x="533.09" y="94.3" width="100%" height="100%" style="fill:#000;fill-opacity:1"/><use xlink:href="#i" x="544.286" y="94.3" width="100%" height="100%" style="fill:#000;fill-opacity:1"/><use xlink:href="#v" x="554.762" y="94.3" width="100%" height="100%" style="fill:#000;fill-opacity:1"/><use xlink:href="#w" x="313.8" y="93" width="100%" height="100%" style="fill:#000;fill-opacity:1"/><use xlink:href="#o" x="322.8" y="93" width="100%" height="100%" style="fill:#000;fill-opacity:1"/><use xlink:href="#x" x="258.4" y="94.3" width="100%" height="100%" style="fill:#000;fill-opacity:1"/><use xlink:href="#y" x="274.474" y="94.3" width="100%" height="100%" style="fill:#000;fill-opacity:1"/><use xlink:href="#g" x="287.452" y="94.3" width="100%" height="100%" style="fill:#000;fill-opacity:1"/><use xlink:href="#z" x="293.626" y="94.3" width="100%" height="100%" style="fill:#000;fill-opacity:1"/><g style="fill:#000;fill-opacity:1"><use xlink:href="#A" x="23.1" y="93" width="100%" height="100%"/><use xlink:href="#B" x="27.204" y="93" width="100%" height="100%"/></g><g style="fill:#000;fill-opacity:1"><use xlink:href="#C" x="36.204" y="93" width="100%" height="100%"/><use xlink:href="#A" x="44.412" y="93" width="100%" height="100%"/><use xlink:href="#D" x="48.516" y="93" width="100%" height="100%"/></g><use xlink:href="#o" x="57.516" y="93" width="100%" height="100%" style="fill:#000;fill-opacity:1"/><g style="fill:#000;fill-opacity:1"><use xlink:href="#E" x="534.3" y="117.6" width="100%" height="100%"/><use xlink:href="#q" x="550.482" y="117.6" width="100%" height="100%"/></g><use xlink:href="#F" x="313.8" y="116.3" width="100%" height="100%" style="fill:#000;fill-opacity:1"/><use xlink:href="#G" x="322.8" y="116.3" width="100%" height="100%" style="fill:#000;fill-opacity:1"/><use xlink:href="#x" x="267.1" y="117.6" width="100%" height="100%" style="fill:#000;fill-opacity:1"/><use xlink:href="#H" x="283.102" y="117.6" width="100%" height="100%" style="fill:#000;fill-opacity:1"/><use xlink:href="#I" x="296.08" y="117.6" width="100%" height="100%" style="fill:#000;fill-opacity:1"/><g style="fill:#000;fill-opacity:1"><use xlink:href="#J" x="23.1" y="116.3" width="100%" height="100%"/><use xlink:href="#s" x="31.308" y="116.3" width="100%" height="100%"/></g><use xlink:href="#K" x="39.408" y="116.3" width="100%" height="100%" style="fill:#000;fill-opacity:1"/><use xlink:href="#K" x="45.114" y="116.3" width="100%" height="100%" style="fill:#000;fill-opacity:1"/><g style="fill:#000;fill-opacity:1"><use xlink:href="#A" x="50.712" y="116.3" width="100%" height="100%"/><use xlink:href="#s" x="54.816" y="116.3" width="100%" height="100%"/><use xlink:href="#L" x="63.024" y="116.3" width="100%" height="100%"/></g><use xlink:href="#o" x="72.204" y="116.3" width="100%" height="100%" style="fill:#000;fill-opacity:1"/><use xlink:href="#M" x="550.4" y="140.8" width="100%" height="100%" style="fill:#000;fill-opacity:1"/><g style="fill:#000;fill-opacity:1"><use xlink:href="#s" x="313.8" y="139.5" width="100%" height="100%"/><use xlink:href="#B" x="322.008" y="139.5" width="100%" height="100%"/></g><use xlink:href="#D" x="331.008" y="139.5" width="100%" height="100%" style="fill:#000;fill-opacity:1"/><use xlink:href="#N" x="245.2" y="140.8" width="100%" height="100%" style="fill:#000;fill-opacity:1"/><g style="fill:#000;fill-opacity:1"><use xlink:href="#O" x="264.28" y="140.8" width="100%" height="100%"/><use xlink:href="#P" x="281.974" y="140.8" width="100%" height="100%"/></g><use xlink:href="#Q" x="288.76" y="140.8" width="100%" height="100%" style="fill:#000;fill-opacity:1"/><use xlink:href="#v" x="296.068" y="140.8" width="100%" height="100%" style="fill:#000;fill-opacity:1"/><use xlink:href="#R" x="23.1" y="139.5" width="100%" height="100%" style="fill:#000;fill-opacity:1"/><use xlink:href="#m" x="32.1" y="139.5" width="100%" height="100%" style="fill:#000;fill-opacity:1"/><use xlink:href="#l" x="555.4" y="164.1" width="100%" height="100%" style="fill:#000;fill-opacity:1"/><use xlink:href="#s" x="313.8" y="162.8" width="100%" height="100%" style="fill:#000;fill-opacity:1"/><use xlink:href="#x" x="249" y="164.1" width="100%" height="100%" style="fill:#000;fill-opacity:1"/><use xlink:href="#v" x="265.074" y="164.1" width="100%" height="100%" style="fill:#000;fill-opacity:1"/><use xlink:href="#p" x="271.86" y="164.1" width="100%" height="100%" style="fill:#000;fill-opacity:1"/><use xlink:href="#S" x="283.056" y="164.1" width="100%" height="100%" style="fill:#000;fill-opacity:1"/><use xlink:href="#T" x="296.034" y="164.1" width="100%" height="100%" style="fill:#000;fill-opacity:1"/><g style="fill:#000;fill-opacity:1"><use xlink:href="#J" x="23.1" y="162.8" width="100%" height="100%"/><use xlink:href="#F" x="31.308" y="162.8" width="100%" height="100%"/></g><use xlink:href="#B" x="40.308" y="162.8" width="100%" height="100%" style="fill:#000;fill-opacity:1"/><use xlink:href="#t" x="49.002" y="162.8" width="100%" height="100%" style="fill:#000;fill-opacity:1"/><g style="fill:#000;fill-opacity:1"><use xlink:href="#o" x="56.994" y="162.8" width="100%" height="100%"/><use xlink:href="#K" x="65.202" y="162.8" width="100%" height="100%"/></g><g style="fill:#000;fill-opacity:1"><use xlink:href="#C" x="70.908" y="162.8" width="100%" height="100%"/><use xlink:href="#A" x="79.116" y="162.8" width="100%" height="100%"/><use xlink:href="#F" x="83.22" y="162.8" width="100%" height="100%"/></g><use xlink:href="#B" x="92.22" y="162.8" width="100%" height="100%" style="fill:#000;fill-opacity:1"/><g style="fill:#000;fill-opacity:1"><use xlink:href="#U" x="531.6" y="187.3" width="100%" height="100%"/><use xlink:href="#V" x="549.798" y="187.3" width="100%" height="100%"/></g><g style="fill:#000;fill-opacity:1"><use xlink:href="#A" x="313.8" y="186" width="100%" height="100%"/><use xlink:href="#B" x="317.904" y="186" width="100%" height="100%"/></g><use xlink:href="#x" x="261.5" y="187.3" width="100%" height="100%" style="fill:#000;fill-opacity:1"/><use xlink:href="#W" x="277.574" y="187.3" width="100%" height="100%" style="fill:#000;fill-opacity:1"/><use xlink:href="#X" x="290.552" y="187.3" width="100%" height="100%" style="fill:#000;fill-opacity:1"/><use xlink:href="#n" x="23.1" y="186" width="100%" height="100%" style="fill:#000;fill-opacity:1"/><use xlink:href="#Y" x="32.1" y="186" width="100%" height="100%" style="fill:#000;fill-opacity:1"/><use xlink:href="#K" x="41.1" y="186" width="100%" height="100%" style="fill:#000;fill-opacity:1"/><use xlink:href="#K" x="46.806" y="186" width="100%" height="100%" style="fill:#000;fill-opacity:1"/><use xlink:href="#Z" x="52.782" y="186" width="100%" height="100%" style="fill:#000;fill-opacity:1"/><g style="fill:#000;fill-opacity:1"><use xlink:href="#aa" x="530.4" y="210.6" width="100%" height="100%"/><use xlink:href="#f" x="548.598" y="210.6" width="100%" height="100%"/></g><use xlink:href="#ab" x="555.384" y="210.6" width="100%" height="100%" style="fill:#000;fill-opacity:1"/><use xlink:href="#m" x="313.8" y="209.3" width="100%" height="100%" style="fill:#000;fill-opacity:1"/><use xlink:href="#F" x="318.498" y="209.3" width="100%" height="100%" style="fill:#000;fill-opacity:1"/><g style="fill:#000;fill-opacity:1"><use xlink:href="#a" x="254.4" y="210.6" width="100%" height="100%"/><use xlink:href="#f" x="265.308" y="210.6" width="100%" height="100%"/></g><use xlink:href="#P" x="272.004" y="210.6" width="100%" height="100%" style="fill:#000;fill-opacity:1"/><use xlink:href="#H" x="278.79" y="210.6" width="100%" height="100%" style="fill:#000;fill-opacity:1"/><use xlink:href="#q" x="291.768" y="210.6" width="100%" height="100%" style="fill:#000;fill-opacity:1"/><g style="fill:#000;fill-opacity:1"><use xlink:href="#o" x="23.1" y="209.3" width="100%" height="100%"/><use xlink:href="#C" x="31.308" y="209.3" width="100%" height="100%"/><use xlink:href="#C" x="39.516" y="209.3" width="100%" height="100%"/><use xlink:href="#s" x="47.724" y="209.3" width="100%" height="100%"/></g><use xlink:href="#Z" x="55.716" y="209.3" width="100%" height="100%" style="fill:#000;fill-opacity:1"/><use xlink:href="#ac" x="518.6" y="233.8" width="100%" height="100%" style="fill:#000;fill-opacity:1"/><use xlink:href="#h" x="535.376" y="233.8" width="100%" height="100%" style="fill:#000;fill-opacity:1"/><use xlink:href="#b" x="542.684" y="233.8" width="100%" height="100%" style="fill:#000;fill-opacity:1"/><use xlink:href="#v" x="554.762" y="233.8" width="100%" height="100%" style="fill:#000;fill-opacity:1"/><use xlink:href="#n" x="313.8" y="232.5" width="100%" height="100%" style="fill:#000;fill-opacity:1"/><use xlink:href="#s" x="322.8" y="232.5" width="100%" height="100%" style="fill:#000;fill-opacity:1"/><use xlink:href="#t" x="330.702" y="232.5" width="100%" height="100%" style="fill:#000;fill-opacity:1"/><use xlink:href="#o" x="338.694" y="232.5" width="100%" height="100%" style="fill:#000;fill-opacity:1"/><use xlink:href="#x" x="238.2" y="233.8" width="100%" height="100%" style="fill:#000;fill-opacity:1"/><use xlink:href="#q" x="254.274" y="233.8" width="100%" height="100%" style="fill:#000;fill-opacity:1"/><use xlink:href="#P" x="265.38" y="233.8" width="100%" height="100%" style="fill:#000;fill-opacity:1"/><use xlink:href="#i" x="272.076" y="233.8" width="100%" height="100%" style="fill:#000;fill-opacity:1"/><use xlink:href="#e" x="282.552" y="233.8" width="100%" height="100%" style="fill:#000;fill-opacity:1"/><use xlink:href="#f" x="289.86" y="233.8" width="100%" height="100%" style="fill:#000;fill-opacity:1"/><use xlink:href="#g" x="296.646" y="233.8" width="100%" height="100%" style="fill:#000;fill-opacity:1"/><g style="fill:#000;fill-opacity:1"><use xlink:href="#A" x="23.1" y="232.5" width="100%" height="100%"/><use xlink:href="#B" x="27.204" y="232.5" width="100%" height="100%"/></g><use xlink:href="#m" x="36.204" y="232.5" width="100%" height="100%" style="fill:#000;fill-opacity:1"/><g style="fill:#000;fill-opacity:1"><use xlink:href="#o" x="41.1" y="232.5" width="100%" height="100%"/><use xlink:href="#L" x="49.308" y="232.5" width="100%" height="100%"/></g><use xlink:href="#K" x="58.398" y="232.5" width="100%" height="100%" style="fill:#000;fill-opacity:1"/><g style="fill:#000;fill-opacity:1"><use xlink:href="#s" x="64.104" y="232.5" width="100%" height="100%"/><use xlink:href="#m" x="72.312" y="232.5" width="100%" height="100%"/></g><g style="fill:#000;fill-opacity:1"><use xlink:href="#A" x="77.208" y="232.5" width="100%" height="100%"/><use xlink:href="#F" x="81.312" y="232.5" width="100%" height="100%"/></g><use xlink:href="#B" x="90.312" y="232.5" width="100%" height="100%" style="fill:#000;fill-opacity:1"/><use xlink:href="#p" x="537.8" y="257.1" width="100%" height="100%" style="fill:#000;fill-opacity:1"/><use xlink:href="#ad" x="549.086" y="257.1" width="100%" height="100%" style="fill:#000;fill-opacity:1"/><g style="fill:#000;fill-opacity:1"><use xlink:href="#A" x="313.8" y="255.8" width="100%" height="100%"/><use xlink:href="#m" x="317.904" y="255.8" width="100%" height="100%"/></g><g style="fill:#000;fill-opacity:1"><use xlink:href="#a" x="234.3" y="257.1" width="100%" height="100%"/><use xlink:href="#f" x="245.208" y="257.1" width="100%" height="100%"/></g><use xlink:href="#P" x="251.904" y="257.1" width="100%" height="100%" style="fill:#000;fill-opacity:1"/><use xlink:href="#H" x="258.69" y="257.1" width="100%" height="100%" style="fill:#000;fill-opacity:1"/><use xlink:href="#e" x="271.668" y="257.1" width="100%" height="100%" style="fill:#000;fill-opacity:1"/><g style="fill:#000;fill-opacity:1"><use xlink:href="#O" x="278.976" y="257.1" width="100%" height="100%"/><use xlink:href="#g" x="296.67" y="257.1" width="100%" height="100%"/></g><use xlink:href="#K" x="23.1" y="255.8" width="100%" height="100%" style="fill:#000;fill-opacity:1"/><g style="fill:#000;fill-opacity:1"><use xlink:href="#o" x="28.878" y="255.8" width="100%" height="100%"/><use xlink:href="#C" x="37.086" y="255.8" width="100%" height="100%"/><use xlink:href="#A" x="45.294" y="255.8" width="100%" height="100%"/></g><use xlink:href="#L" x="49.29" y="255.8" width="100%" height="100%" style="fill:#000;fill-opacity:1"/><use xlink:href="#B" x="58.29" y="255.8" width="100%" height="100%" style="fill:#000;fill-opacity:1"/><g style="fill:#000;fill-opacity:1"><use xlink:href="#s" x="67.29" y="255.8" width="100%" height="100%"/><use xlink:href="#m" x="75.498" y="255.8" width="100%" height="100%"/></g><g style="fill:#000;fill-opacity:1"><use xlink:href="#A" x="80.394" y="255.8" width="100%" height="100%"/><use xlink:href="#F" x="84.498" y="255.8" width="100%" height="100%"/></g><use xlink:href="#B" x="93.498" y="255.8" width="100%" height="100%" style="fill:#000;fill-opacity:1"/><g style="fill:#000;fill-opacity:1"><use xlink:href="#aa" x="530.4" y="280.3" width="100%" height="100%"/><use xlink:href="#f" x="548.598" y="280.3" width="100%" height="100%"/></g><use xlink:href="#ab" x="555.384" y="280.3" width="100%" height="100%" style="fill:#000;fill-opacity:1"/><use xlink:href="#m" x="313.8" y="279" width="100%" height="100%" style="fill:#000;fill-opacity:1"/><use xlink:href="#F" x="318.498" y="279" width="100%" height="100%" style="fill:#000;fill-opacity:1"/><g style="fill:#000;fill-opacity:1"><use xlink:href="#a" x="241.9" y="280.3" width="100%" height="100%"/><use xlink:href="#I" x="252.808" y="280.3" width="100%" height="100%"/></g><use xlink:href="#g" x="259.594" y="280.3" width="100%" height="100%" style="fill:#000;fill-opacity:1"/><g style="fill:#000;fill-opacity:1"><use xlink:href="#ae" x="265.768" y="280.3" width="100%" height="100%"/><use xlink:href="#af" x="276.964" y="280.3" width="100%" height="100%"/></g><use xlink:href="#f" x="289.87" y="280.3" width="100%" height="100%" style="fill:#000;fill-opacity:1"/><use xlink:href="#g" x="296.656" y="280.3" width="100%" height="100%" style="fill:#000;fill-opacity:1"/><use xlink:href="#m" x="23.1" y="279" width="100%" height="100%" style="fill:#000;fill-opacity:1"/><use xlink:href="#K" x="27.996" y="279" width="100%" height="100%" style="fill:#000;fill-opacity:1"/><g style="fill:#000;fill-opacity:1"><use xlink:href="#o" x="33.774" y="279" width="100%" height="100%"/><use xlink:href="#s" x="41.982" y="279" width="100%" height="100%"/><use xlink:href="#C" x="50.19" y="279" width="100%" height="100%"/><use xlink:href="#Y" x="58.398" y="279" width="100%" height="100%"/></g><use xlink:href="#K" x="67.398" y="279" width="100%" height="100%" style="fill:#000;fill-opacity:1"/><use xlink:href="#Z" x="73.374" y="279" width="100%" height="100%" style="fill:#000;fill-opacity:1"/><use xlink:href="#x" x="519.1" y="303.6" width="100%" height="100%" style="fill:#000;fill-opacity:1"/><use xlink:href="#c" x="535.174" y="303.6" width="100%" height="100%" style="fill:#000;fill-opacity:1"/><use xlink:href="#ag" x="548.152" y="303.6" width="100%" height="100%" style="fill:#000;fill-opacity:1"/><use xlink:href="#G" x="313.8" y="302.3" width="100%" height="100%" style="fill:#000;fill-opacity:1"/><use xlink:href="#F" x="318.498" y="302.3" width="100%" height="100%" style="fill:#000;fill-opacity:1"/><use xlink:href="#K" x="327.498" y="302.3" width="100%" height="100%" style="fill:#000;fill-opacity:1"/><g style="fill:#000;fill-opacity:1"><use xlink:href="#d" x="229.8" y="303.6" width="100%" height="100%"/><use xlink:href="#V" x="240.996" y="303.6" width="100%" height="100%"/></g><use xlink:href="#P" x="252.786" y="303.6" width="100%" height="100%" style="fill:#000;fill-opacity:1"/><g style="fill:#000;fill-opacity:1"><use xlink:href="#ah" x="259.572" y="303.6" width="100%" height="100%"/><use xlink:href="#b" x="277.878" y="303.6" width="100%" height="100%"/></g><use xlink:href="#f" x="289.884" y="303.6" width="100%" height="100%" style="fill:#000;fill-opacity:1"/><use xlink:href="#g" x="296.67" y="303.6" width="100%" height="100%" style="fill:#000;fill-opacity:1"/><use xlink:href="#m" x="23.1" y="302.3" width="100%" height="100%" style="fill:#000;fill-opacity:1"/><use xlink:href="#K" x="28.086" y="302.3" width="100%" height="100%" style="fill:#000;fill-opacity:1"/><use xlink:href="#s" x="33.684" y="302.3" width="100%" height="100%" style="fill:#000;fill-opacity:1"/><use xlink:href="#t" x="41.676" y="302.3" width="100%" height="100%" style="fill:#000;fill-opacity:1"/><g style="fill:#000;fill-opacity:1"><use xlink:href="#o" x="49.668" y="302.3" width="100%" height="100%"/><use xlink:href="#ai" x="57.876" y="302.3" width="100%" height="100%"/><use xlink:href="#ai" x="61.98" y="302.3" width="100%" height="100%"/><use xlink:href="#o" x="66.084" y="302.3" width="100%" height="100%"/><use xlink:href="#K" x="74.292" y="302.3" width="100%" height="100%"/></g><use xlink:href="#P" x="541.9" y="326.8" width="100%" height="100%" style="fill:#000;fill-opacity:1"/><use xlink:href="#I" x="548.596" y="326.8" width="100%" height="100%" style="fill:#000;fill-opacity:1"/><use xlink:href="#l" x="555.382" y="326.8" width="100%" height="100%" style="fill:#000;fill-opacity:1"/><use xlink:href="#A" x="313.8" y="325.5" width="100%" height="100%" style="fill:#000;fill-opacity:1"/><g style="fill:#000;fill-opacity:1"><use xlink:href="#aj" x="251.3" y="326.8" width="100%" height="100%"/><use xlink:href="#g" x="260.498" y="326.8" width="100%" height="100%"/></g><g style="fill:#000;fill-opacity:1"><use xlink:href="#ak" x="266.672" y="326.8" width="100%" height="100%"/><use xlink:href="#e" x="277.058" y="326.8" width="100%" height="100%"/></g><g style="fill:#000;fill-opacity:1"><use xlink:href="#X" x="284.366" y="326.8" width="100%" height="100%"/><use xlink:href="#g" x="296.66" y="326.8" width="100%" height="100%"/></g><g style="fill:#000;fill-opacity:1"><use xlink:href="#s" x="23.1" y="325.5" width="100%" height="100%"/><use xlink:href="#C" x="31.308" y="325.5" width="100%" height="100%"/><use xlink:href="#C" x="39.516" y="325.5" width="100%" height="100%"/><use xlink:href="#s" x="47.724" y="325.5" width="100%" height="100%"/><use xlink:href="#Y" x="55.932" y="325.5" width="100%" height="100%"/></g><g style="fill:#000;fill-opacity:1"><use xlink:href="#ai" x="64.932" y="325.5" width="100%" height="100%"/><use xlink:href="#m" x="69.036" y="325.5" width="100%" height="100%"/></g><g style="fill:#000;fill-opacity:1"><use xlink:href="#al" x="521.7" y="350.1" width="100%" height="100%"/><use xlink:href="#am" x="538.188" y="350.1" width="100%" height="100%"/><use xlink:href="#f" x="548.574" y="350.1" width="100%" height="100%"/></g><use xlink:href="#g" x="555.36" y="350.1" width="100%" height="100%" style="fill:#000;fill-opacity:1"/><use xlink:href="#m" x="313.8" y="348.8" width="100%" height="100%" style="fill:#000;fill-opacity:1"/><use xlink:href="#n" x="318.696" y="348.8" width="100%" height="100%" style="fill:#000;fill-opacity:1"/><g style="fill:#000;fill-opacity:1"><use xlink:href="#s" x="327.696" y="348.8" width="100%" height="100%"/><use xlink:href="#m" x="335.904" y="348.8" width="100%" height="100%"/></g><g style="fill:#000;fill-opacity:1"><use xlink:href="#a" x="207.5" y="350.1" width="100%" height="100%"/><use xlink:href="#T" x="218.408" y="350.1" width="100%" height="100%"/></g><g style="fill:#000;fill-opacity:1"><use xlink:href="#an" x="225.194" y="350.1" width="100%" height="100%"/><use xlink:href="#p" x="238.586" y="350.1" width="100%" height="100%"/></g><use xlink:href="#ao" x="249.872" y="350.1" width="100%" height="100%" style="fill:#000;fill-opacity:1"/><use xlink:href="#p" x="260.276" y="350.1" width="100%" height="100%" style="fill:#000;fill-opacity:1"/><g style="fill:#000;fill-opacity:1"><use xlink:href="#ap" x="271.562" y="350.1" width="100%" height="100%"/><use xlink:href="#f" x="289.868" y="350.1" width="100%" height="100%"/></g><use xlink:href="#g" x="296.654" y="350.1" width="100%" height="100%" style="fill:#000;fill-opacity:1"/><use xlink:href="#J" x="23.1" y="348.8" width="100%" height="100%" style="fill:#000;fill-opacity:1"/><use xlink:href="#n" x="31.2" y="348.8" width="100%" height="100%" style="fill:#000;fill-opacity:1"/><use xlink:href="#F" x="40.2" y="348.8" width="100%" height="100%" style="fill:#000;fill-opacity:1"/><g style="fill:#000;fill-opacity:1"><use xlink:href="#J" x="49.2" y="348.8" width="100%" height="100%"/><use xlink:href="#F" x="57.408" y="348.8" width="100%" height="100%"/></g><g style="fill:#000;fill-opacity:1"><use xlink:href="#ai" x="66.408" y="348.8" width="100%" height="100%"/><use xlink:href="#s" x="70.512" y="348.8" width="100%" height="100%"/><use xlink:href="#m" x="78.72" y="348.8" width="100%" height="100%"/></g><use xlink:href="#o" x="83.616" y="348.8" width="100%" height="100%" style="fill:#000;fill-opacity:1"/><use xlink:href="#aq" x="529.6" y="373.3" width="100%" height="100%" style="fill:#000;fill-opacity:1"/><use xlink:href="#I" x="548.608" y="373.3" width="100%" height="100%" style="fill:#000;fill-opacity:1"/><use xlink:href="#l" x="555.394" y="373.3" width="100%" height="100%" style="fill:#000;fill-opacity:1"/><use xlink:href="#Z" x="313.8" y="372" width="100%" height="100%" style="fill:#000;fill-opacity:1"/><use xlink:href="#F" x="321.702" y="372" width="100%" height="100%" style="fill:#000;fill-opacity:1"/><use xlink:href="#Y" x="330.702" y="372" width="100%" height="100%" style="fill:#000;fill-opacity:1"/><g style="fill:#000;fill-opacity:1"><use xlink:href="#k" x="252.7" y="373.3" width="100%" height="100%"/><use xlink:href="#M" x="268.306" y="373.3" width="100%" height="100%"/><use xlink:href="#ak" x="279.484" y="373.3" width="100%" height="100%"/><use xlink:href="#c" x="289.87" y="373.3" width="100%" height="100%"/></g><use xlink:href="#C" x="23.1" y="372" width="100%" height="100%" style="fill:#000;fill-opacity:1"/><g style="fill:#000;fill-opacity:1"><use xlink:href="#J" x="31.2" y="372" width="100%" height="100%"/><use xlink:href="#n" x="39.408" y="372" width="100%" height="100%"/></g><g style="fill:#000;fill-opacity:1"><use xlink:href="#o" x="48.408" y="372" width="100%" height="100%"/><use xlink:href="#D" x="56.616" y="372" width="100%" height="100%"/></g><use xlink:href="#Y" x="65.616" y="372" width="100%" height="100%" style="fill:#000;fill-opacity:1"/><g style="fill:#000;fill-opacity:1"><use xlink:href="#ai" x="74.616" y="372" width="100%" height="100%"/><use xlink:href="#o" x="78.72" y="372" width="100%" height="100%"/></g><use xlink:href="#p" x="537.8" y="396.6" width="100%" height="100%" style="fill:#000;fill-opacity:1"/><use xlink:href="#ad" x="549.086" y="396.6" width="100%" height="100%" style="fill:#000;fill-opacity:1"/><use xlink:href="#n" x="313.8" y="395.3" width="100%" height="100%" style="fill:#000;fill-opacity:1"/><use xlink:href="#o" x="322.8" y="395.3" width="100%" height="100%" style="fill:#000;fill-opacity:1"/><use xlink:href="#x" x="258.6" y="396.6" width="100%" height="100%" style="fill:#000;fill-opacity:1"/><use xlink:href="#i" x="274.674" y="396.6" width="100%" height="100%" style="fill:#000;fill-opacity:1"/><use xlink:href="#ar" x="285.15" y="396.6" width="100%" height="100%" style="fill:#000;fill-opacity:1"/><use xlink:href="#G" x="23.1" y="395.3" width="100%" height="100%" style="fill:#000;fill-opacity:1"/><use xlink:href="#F" x="27.798" y="395.3" width="100%" height="100%" style="fill:#000;fill-opacity:1"/><use xlink:href="#K" x="36.798" y="395.3" width="100%" height="100%" style="fill:#000;fill-opacity:1"/><use xlink:href="#as" x="42.504" y="395.3" width="100%" height="100%" style="fill:#000;fill-opacity:1"/><g style="fill:#000;fill-opacity:1"><use xlink:href="#s" x="55.608" y="395.3" width="100%" height="100%"/><use xlink:href="#m" x="63.816" y="395.3" width="100%" height="100%"/></g><g style="fill:#000;fill-opacity:1"><use xlink:href="#aa" x="523.8" y="419.8" width="100%" height="100%"/><use xlink:href="#h" x="541.998" y="419.8" width="100%" height="100%"/></g><use xlink:href="#X" x="549.306" y="419.8" width="100%" height="100%" style="fill:#000;fill-opacity:1"/><use xlink:href="#F" x="313.8" y="418.5" width="100%" height="100%" style="fill:#000;fill-opacity:1"/><use xlink:href="#B" x="322.8" y="418.5" width="100%" height="100%" style="fill:#000;fill-opacity:1"/><use xlink:href="#at" x="252" y="419.8" width="100%" height="100%" style="fill:#000;fill-opacity:1"/><use xlink:href="#l" x="265.104" y="419.8" width="100%" height="100%" style="fill:#000;fill-opacity:1"/><use xlink:href="#p" x="271.278" y="419.8" width="100%" height="100%" style="fill:#000;fill-opacity:1"/><use xlink:href="#e" x="282.564" y="419.8" width="100%" height="100%" style="fill:#000;fill-opacity:1"/><use xlink:href="#f" x="289.872" y="419.8" width="100%" height="100%" style="fill:#000;fill-opacity:1"/><use xlink:href="#g" x="296.658" y="419.8" width="100%" height="100%" style="fill:#000;fill-opacity:1"/><use xlink:href="#m" x="23.1" y="418.5" width="100%" height="100%" style="fill:#000;fill-opacity:1"/><use xlink:href="#r" x="28.176" y="418.5" width="100%" height="100%" style="fill:#000;fill-opacity:1"/><g style="fill:#000;fill-opacity:1"><use xlink:href="#A" x="39.57" y="418.5" width="100%" height="100%"/><use xlink:href="#B" x="43.674" y="418.5" width="100%" height="100%"/></g><g style="fill:#000;fill-opacity:1"><use xlink:href="#au" x="451.9" y="443.1" width="100%" height="100%"/><use xlink:href="#q" x="464.194" y="443.1" width="100%" height="100%"/></g><use xlink:href="#r" x="227.4" y="441.8" width="100%" height="100%" style="fill:#000;fill-opacity:1"/><g style="fill:#000;fill-opacity:1"><use xlink:href="#A" x="238.794" y="441.8" width="100%" height="100%"/><use xlink:href="#m" x="242.898" y="441.8" width="100%" height="100%"/></g><use xlink:href="#n" x="247.884" y="441.8" width="100%" height="100%" style="fill:#000;fill-opacity:1"/><use xlink:href="#Y" x="23.1" y="441.8" width="100%" height="100%" style="fill:#000;fill-opacity:1"/><use xlink:href="#B" x="32.1" y="441.8" width="100%" height="100%" style="fill:#000;fill-opacity:1"/><use xlink:href="#D" x="41.1" y="441.8" width="100%" height="100%" style="fill:#000;fill-opacity:1"/><use xlink:href="#F" x="50.1" y="441.8" width="100%" height="100%" style="fill:#000;fill-opacity:1"/><use xlink:href="#Y" x="59.1" y="441.8" width="100%" height="100%" style="fill:#000;fill-opacity:1"/><use xlink:href="#w" x="68.1" y="441.8" width="100%" height="100%" style="fill:#000;fill-opacity:1"/><use xlink:href="#m" x="77.1" y="441.8" width="100%" height="100%" style="fill:#000;fill-opacity:1"/><g style="fill:#000;fill-opacity:1"><use xlink:href="#o" x="81.996" y="441.8" width="100%" height="100%"/><use xlink:href="#D" x="90.204" y="441.8" width="100%" height="100%"/></g><use xlink:href="#ai" x="99.204" y="441.8" width="100%" height="100%" style="fill:#000;fill-opacity:1"/><use xlink:href="#Z" x="103.2" y="441.8" width="100%" height="100%" style="fill:#000;fill-opacity:1"/><use xlink:href="#x" x="515.6" y="466.3" width="100%" height="100%" style="fill:#000;fill-opacity:1"/><use xlink:href="#av" x="531.674" y="466.3" width="100%" height="100%" style="fill:#000;fill-opacity:1"/><use xlink:href="#aw" x="541.772" y="466.3" width="100%" height="100%" style="fill:#000;fill-opacity:1"/><use xlink:href="#v" x="554.75" y="466.3" width="100%" height="100%" style="fill:#000;fill-opacity:1"/><use xlink:href="#D" x="313.8" y="465" width="100%" height="100%" style="fill:#000;fill-opacity:1"/><use xlink:href="#F" x="322.8" y="465" width="100%" height="100%" style="fill:#000;fill-opacity:1"/><use xlink:href="#x" x="267.7" y="466.3" width="100%" height="100%" style="fill:#000;fill-opacity:1"/><use xlink:href="#e" x="283.774" y="466.3" width="100%" height="100%" style="fill:#000;fill-opacity:1"/><use xlink:href="#ax" x="291.082" y="466.3" width="100%" height="100%" style="fill:#000;fill-opacity:1"/><use xlink:href="#as" x="23.1" y="465" width="100%" height="100%" style="fill:#000;fill-opacity:1"/><use xlink:href="#Y" x="36.204" y="465" width="100%" height="100%" style="fill:#000;fill-opacity:1"/><use xlink:href="#K" x="45.204" y="465" width="100%" height="100%" style="fill:#000;fill-opacity:1"/><use xlink:href="#D" x="50.91" y="465" width="100%" height="100%" style="fill:#000;fill-opacity:1"/><g style="fill:#000;fill-opacity:1"><use xlink:href="#o" x="59.91" y="465" width="100%" height="100%"/><use xlink:href="#K" x="68.118" y="465" width="100%" height="100%"/></g><g style="fill:#000;fill-opacity:1"><use xlink:href="#U" x="531.6" y="489.6" width="100%" height="100%"/><use xlink:href="#V" x="549.798" y="489.6" width="100%" height="100%"/></g><g style="fill:#000;fill-opacity:1"><use xlink:href="#s" x="313.8" y="488.3" width="100%" height="100%"/><use xlink:href="#m" x="322.008" y="488.3" width="100%" height="100%"/></g><g style="fill:#000;fill-opacity:1"><use xlink:href="#d" x="253.6" y="489.6" width="100%" height="100%"/><use xlink:href="#ah" x="264.796" y="489.6" width="100%" height="100%"/><use xlink:href="#S" x="283.102" y="489.6" width="100%" height="100%"/></g><use xlink:href="#T" x="296.08" y="489.6" width="100%" height="100%" style="fill:#000;fill-opacity:1"/><g style="fill:#000;fill-opacity:1"><use xlink:href="#C" x="23.1" y="488.3" width="100%" height="100%"/><use xlink:href="#A" x="31.308" y="488.3" width="100%" height="100%"/></g><use xlink:href="#L" x="35.304" y="488.3" width="100%" height="100%" style="fill:#000;fill-opacity:1"/><use xlink:href="#n" x="44.394" y="488.3" width="100%" height="100%" style="fill:#000;fill-opacity:1"/><g style="fill:#000;fill-opacity:1"><use xlink:href="#a" x="491.3" y="512.8" width="100%" height="100%"/><use xlink:href="#ay" x="502.208" y="512.8" width="100%" height="100%"/></g><g style="fill:#000;fill-opacity:1"><use xlink:href="#O" x="519.704" y="512.8" width="100%" height="100%"/><use xlink:href="#g" x="537.398" y="512.8" width="100%" height="100%"/></g><use xlink:href="#p" x="543.5" y="512.8" width="100%" height="100%" style="fill:#000;fill-opacity:1"/><use xlink:href="#az" x="554.786" y="512.8" width="100%" height="100%" style="fill:#000;fill-opacity:1"/><use xlink:href="#w" x="313.8" y="511.5" width="100%" height="100%" style="fill:#000;fill-opacity:1"/><use xlink:href="#Z" x="322.602" y="511.5" width="100%" height="100%" style="fill:#000;fill-opacity:1"/><use xlink:href="#aA" x="246.5" y="512.8" width="100%" height="100%" style="fill:#000;fill-opacity:1"/><use xlink:href="#P" x="256.796" y="512.8" width="100%" height="100%" style="fill:#000;fill-opacity:1"/><use xlink:href="#W" x="263.582" y="512.8" width="100%" height="100%" style="fill:#000;fill-opacity:1"/><use xlink:href="#v" x="276.488" y="512.8" width="100%" height="100%" style="fill:#000;fill-opacity:1"/><g style="fill:#000;fill-opacity:1"><use xlink:href="#aB" x="283.274" y="512.8" width="100%" height="100%"/><use xlink:href="#g" x="296.666" y="512.8" width="100%" height="100%"/></g><g style="fill:#000;fill-opacity:1"><use xlink:href="#ai" x="23.1" y="511.5" width="100%" height="100%"/><use xlink:href="#o" x="27.204" y="511.5" width="100%" height="100%"/><use xlink:href="#s" x="35.412" y="511.5" width="100%" height="100%"/><use xlink:href="#C" x="43.62" y="511.5" width="100%" height="100%"/><use xlink:href="#o" x="51.828" y="511.5" width="100%" height="100%"/></g><use xlink:href="#aC" x="522.1" y="536.1" width="100%" height="100%" style="fill:#000;fill-opacity:1"/><use xlink:href="#aD" x="547.498" y="536.1" width="100%" height="100%" style="fill:#000;fill-opacity:1"/><use xlink:href="#f" x="554.806" y="536.1" width="100%" height="100%" style="fill:#000;fill-opacity:1"/><use xlink:href="#B" x="313.8" y="534.8" width="100%" height="100%" style="fill:#000;fill-opacity:1"/><use xlink:href="#F" x="322.8" y="534.8" width="100%" height="100%" style="fill:#000;fill-opacity:1"/><use xlink:href="#m" x="331.692" y="534.8" width="100%" height="100%" style="fill:#000;fill-opacity:1"/><g style="fill:#000;fill-opacity:1"><use xlink:href="#au" x="270.3" y="536.1" width="100%" height="100%"/><use xlink:href="#aE" x="282.594" y="536.1" width="100%" height="100%"/></g><use xlink:href="#P" x="289.29" y="536.1" width="100%" height="100%" style="fill:#000;fill-opacity:1"/><use xlink:href="#az" x="296.076" y="536.1" width="100%" height="100%" style="fill:#000;fill-opacity:1"/><g style="fill:#000;fill-opacity:1"><use xlink:href="#C" x="23.1" y="534.8" width="100%" height="100%"/><use xlink:href="#o" x="31.308" y="534.8" width="100%" height="100%"/><use xlink:href="#ai" x="39.516" y="534.8" width="100%" height="100%"/><use xlink:href="#ai" x="43.62" y="534.8" width="100%" height="100%"/><use xlink:href="#o" x="47.724" y="534.8" width="100%" height="100%"/><use xlink:href="#K" x="55.932" y="534.8" width="100%" height="100%"/></g><use xlink:href="#g" x="532.5" y="559.3" width="100%" height="100%" style="fill:#000;fill-opacity:1"/><g style="fill:#000;fill-opacity:1"><use xlink:href="#am" x="538.674" y="559.3" width="100%" height="100%"/><use xlink:href="#ad" x="549.06" y="559.3" width="100%" height="100%"/></g><use xlink:href="#m" x="313.8" y="558" width="100%" height="100%" style="fill:#000;fill-opacity:1"/><use xlink:href="#n" x="318.696" y="558" width="100%" height="100%" style="fill:#000;fill-opacity:1"/><g style="fill:#000;fill-opacity:1"><use xlink:href="#A" x="327.696" y="558" width="100%" height="100%"/><use xlink:href="#C" x="331.8" y="558" width="100%" height="100%"/></g><use xlink:href="#aF" x="253.4" y="559.3" width="100%" height="100%" style="fill:#000;fill-opacity:1"/><use xlink:href="#aA" x="264.002" y="559.3" width="100%" height="100%" style="fill:#000;fill-opacity:1"/><use xlink:href="#g" x="274.388" y="559.3" width="100%" height="100%" style="fill:#000;fill-opacity:1"/><g style="fill:#000;fill-opacity:1"><use xlink:href="#d" x="280.562" y="559.3" width="100%" height="100%"/><use xlink:href="#q" x="291.758" y="559.3" width="100%" height="100%"/></g><use xlink:href="#w" x="23.1" y="558" width="100%" height="100%" style="fill:#000;fill-opacity:1"/><g style="fill:#000;fill-opacity:1"><use xlink:href="#A" x="32.1" y="558" width="100%" height="100%"/><use xlink:href="#m" x="36.204" y="558" width="100%" height="100%"/></g><use xlink:href="#m" x="41.28" y="558" width="100%" height="100%" style="fill:#000;fill-opacity:1"/><g style="fill:#000;fill-opacity:1"><use xlink:href="#o" x="46.176" y="558" width="100%" height="100%"/><use xlink:href="#K" x="54.384" y="558" width="100%" height="100%"/></g><g style="fill:#000;fill-opacity:1"><use xlink:href="#E" x="528.1" y="582.6" width="100%" height="100%"/><use xlink:href="#i" x="544.282" y="582.6" width="100%" height="100%"/></g><use xlink:href="#f" x="554.758" y="582.6" width="100%" height="100%" style="fill:#000;fill-opacity:1"/><use xlink:href="#w" x="313.8" y="581.3" width="100%" height="100%" style="fill:#000;fill-opacity:1"/><use xlink:href="#Y" x="322.8" y="581.3" width="100%" height="100%" style="fill:#000;fill-opacity:1"/><use xlink:href="#m" x="331.8" y="581.3" width="100%" height="100%" style="fill:#000;fill-opacity:1"/><use xlink:href="#aG" x="253.9" y="582.6" width="100%" height="100%" style="fill:#000;fill-opacity:1"/><use xlink:href="#aD" x="275.302" y="582.6" width="100%" height="100%" style="fill:#000;fill-opacity:1"/><use xlink:href="#h" x="282.61" y="582.6" width="100%" height="100%" style="fill:#000;fill-opacity:1"/><use xlink:href="#aH" x="289.918" y="582.6" width="100%" height="100%" style="fill:#000;fill-opacity:1"/><g style="fill:#000;fill-opacity:1"><use xlink:href="#s" x="23.1" y="581.3" width="100%" height="100%"/><use xlink:href="#ai" x="31.308" y="581.3" width="100%" height="100%"/><use xlink:href="#ai" x="35.412" y="581.3" width="100%" height="100%"/></g><use xlink:href="#Z" x="39.408" y="581.3" width="100%" height="100%" style="fill:#000;fill-opacity:1"/><g style="fill:#000;fill-opacity:1"><use xlink:href="#E" x="534.3" y="605.8" width="100%" height="100%"/><use xlink:href="#q" x="550.482" y="605.8" width="100%" height="100%"/></g><use xlink:href="#G" x="313.8" y="604.5" width="100%" height="100%" style="fill:#000;fill-opacity:1"/><use xlink:href="#K" x="318.696" y="604.5" width="100%" height="100%" style="fill:#000;fill-opacity:1"/><use xlink:href="#F" x="324.402" y="604.5" width="100%" height="100%" style="fill:#000;fill-opacity:1"/><use xlink:href="#as" x="333.402" y="604.5" width="100%" height="100%" style="fill:#000;fill-opacity:1"/><use xlink:href="#aI" x="247.2" y="605.8" width="100%" height="100%" style="fill:#000;fill-opacity:1"/><g style="fill:#000;fill-opacity:1"><use xlink:href="#M" x="260.178" y="605.8" width="100%" height="100%"/><use xlink:href="#z" x="271.356" y="605.8" width="100%" height="100%"/></g><g style="fill:#000;fill-opacity:1"><use xlink:href="#ae" x="280.554" y="605.8" width="100%" height="100%"/><use xlink:href="#q" x="291.75" y="605.8" width="100%" height="100%"/></g><use xlink:href="#D" x="23.1" y="604.5" width="100%" height="100%" style="fill:#000;fill-opacity:1"/><use xlink:href="#F" x="32.1" y="604.5" width="100%" height="100%" style="fill:#000;fill-opacity:1"/><use xlink:href="#Y" x="41.1" y="604.5" width="100%" height="100%" style="fill:#000;fill-opacity:1"/><use xlink:href="#w" x="50.1" y="604.5" width="100%" height="100%" style="fill:#000;fill-opacity:1"/><g style="fill:#000;fill-opacity:1"><use xlink:href="#ai" x="59.1" y="604.5" width="100%" height="100%"/><use xlink:href="#o" x="63.204" y="604.5" width="100%" height="100%"/></g><use xlink:href="#aJ" x="535" y="629.1" width="100%" height="100%" style="fill:#000;fill-opacity:1"/><use xlink:href="#ad" x="549.094" y="629.1" width="100%" height="100%" style="fill:#000;fill-opacity:1"/><use xlink:href="#m" x="313.8" y="627.8" width="100%" height="100%" style="fill:#000;fill-opacity:1"/><use xlink:href="#n" x="318.696" y="627.8" width="100%" height="100%" style="fill:#000;fill-opacity:1"/><use xlink:href="#o" x="327.696" y="627.8" width="100%" height="100%" style="fill:#000;fill-opacity:1"/><use xlink:href="#Z" x="335.598" y="627.8" width="100%" height="100%" style="fill:#000;fill-opacity:1"/><g style="fill:#000;fill-opacity:1"><use xlink:href="#d" x="261.2" y="629.1" width="100%" height="100%"/><use xlink:href="#ay" x="272.396" y="629.1" width="100%" height="100%"/></g><use xlink:href="#y" x="289.892" y="629.1" width="100%" height="100%" style="fill:#000;fill-opacity:1"/><use xlink:href="#C" x="23.1" y="627.8" width="100%" height="100%" style="fill:#000;fill-opacity:1"/><use xlink:href="#m" x="31.2" y="627.8" width="100%" height="100%" style="fill:#000;fill-opacity:1"/><use xlink:href="#s" x="36.186" y="627.8" width="100%" height="100%" style="fill:#000;fill-opacity:1"/><use xlink:href="#aK" x="44.286" y="627.8" width="100%" height="100%" style="fill:#000;fill-opacity:1"/><use xlink:href="#o" x="52.386" y="627.8" width="100%" height="100%" style="fill:#000;fill-opacity:1"/><use xlink:href="#j" x="538.9" y="652.3" width="100%" height="100%" style="fill:#000;fill-opacity:1"/><g style="fill:#000;fill-opacity:1"><use xlink:href="#aL" x="543.9" y="652.3" width="100%" height="100%"/><use xlink:href="#f" x="554.808" y="652.3" width="100%" height="100%"/></g><use xlink:href="#n" x="313.8" y="651" width="100%" height="100%" style="fill:#000;fill-opacity:1"/><g style="fill:#000;fill-opacity:1"><use xlink:href="#A" x="322.8" y="651" width="100%" height="100%"/><use xlink:href="#C" x="326.904" y="651" width="100%" height="100%"/></g><g style="fill:#000;fill-opacity:1"><use xlink:href="#aj" x="257.1" y="652.3" width="100%" height="100%"/><use xlink:href="#P" x="266.298" y="652.3" width="100%" height="100%"/></g><use xlink:href="#ay" x="273.084" y="652.3" width="100%" height="100%" style="fill:#000;fill-opacity:1"/><use xlink:href="#aM" x="290.58" y="652.3" width="100%" height="100%" style="fill:#000;fill-opacity:1"/><g style="fill:#000;fill-opacity:1"><use xlink:href="#J" x="23.1" y="651" width="100%" height="100%"/><use xlink:href="#s" x="31.308" y="651" width="100%" height="100%"/><use xlink:href="#aN" x="39.516" y="651" width="100%" height="100%"/></g><g style="fill:#000;fill-opacity:1"><use xlink:href="#al" x="521.7" y="675.6" width="100%" height="100%"/><use xlink:href="#am" x="538.188" y="675.6" width="100%" height="100%"/><use xlink:href="#f" x="548.574" y="675.6" width="100%" height="100%"/></g><use xlink:href="#g" x="555.36" y="675.6" width="100%" height="100%" style="fill:#000;fill-opacity:1"/><use xlink:href="#m" x="313.8" y="674.3" width="100%" height="100%" style="fill:#000;fill-opacity:1"/><use xlink:href="#n" x="318.696" y="674.3" width="100%" height="100%" style="fill:#000;fill-opacity:1"/><g style="fill:#000;fill-opacity:1"><use xlink:href="#s" x="327.696" y="674.3" width="100%" height="100%"/><use xlink:href="#m" x="335.904" y="674.3" width="100%" height="100%"/></g><use xlink:href="#u" x="265.2" y="675.6" width="100%" height="100%" style="fill:#000;fill-opacity:1"/><g style="fill:#000;fill-opacity:1"><use xlink:href="#d" x="280.59" y="675.6" width="100%" height="100%"/><use xlink:href="#q" x="291.786" y="675.6" width="100%" height="100%"/></g><use xlink:href="#aO" x="23.1" y="674.3" width="100%" height="100%" style="fill:#000;fill-opacity:1"/><use xlink:href="#o" x="32.1" y="674.3" width="100%" height="100%" style="fill:#000;fill-opacity:1"/><g style="fill:#000;fill-opacity:1"><use xlink:href="#aP" x="40.002" y="674.3" width="100%" height="100%"/><use xlink:href="#A" x="48.21" y="674.3" width="100%" height="100%"/><use xlink:href="#w" x="52.314" y="674.3" width="100%" height="100%"/></g><g style="fill:#000;fill-opacity:1"><use xlink:href="#ai" x="61.314" y="674.3" width="100%" height="100%"/><use xlink:href="#o" x="65.418" y="674.3" width="100%" height="100%"/></g><g style="fill:#000;fill-opacity:1"><use xlink:href="#U" x="530.9" y="698.8" width="100%" height="100%"/><use xlink:href="#ad" x="549.098" y="698.8" width="100%" height="100%"/></g><g style="fill:#000;fill-opacity:1"><use xlink:href="#C" x="313.8" y="697.5" width="100%" height="100%"/><use xlink:href="#n" x="322.008" y="697.5" width="100%" height="100%"/></g><use xlink:href="#o" x="331.008" y="697.5" width="100%" height="100%" style="fill:#000;fill-opacity:1"/><g style="fill:#000;fill-opacity:1"><use xlink:href="#U" x="208.7" y="698.8" width="100%" height="100%"/><use xlink:href="#b" x="226.898" y="698.8" width="100%" height="100%"/></g><use xlink:href="#O" x="238.976" y="698.8" width="100%" height="100%" style="fill:#000;fill-opacity:1"/><use xlink:href="#aA" x="256.58" y="698.8" width="100%" height="100%" style="fill:#000;fill-opacity:1"/><g style="fill:#000;fill-opacity:1"><use xlink:href="#d" x="272.06" y="698.8" width="100%" height="100%"/><use xlink:href="#aD" x="283.256" y="698.8" width="100%" height="100%"/></g><use xlink:href="#aM" x="290.564" y="698.8" width="100%" height="100%" style="fill:#000;fill-opacity:1"/><g style="fill:#000;fill-opacity:1"><use xlink:href="#A" x="23.1" y="697.5" width="100%" height="100%"/><use xlink:href="#B" x="27.204" y="697.5" width="100%" height="100%"/></g><use xlink:href="#G" x="36.096" y="697.5" width="100%" height="100%" style="fill:#000;fill-opacity:1"/><use xlink:href="#F" x="40.902" y="697.5" width="100%" height="100%" style="fill:#000;fill-opacity:1"/><use xlink:href="#K" x="49.902" y="697.5" width="100%" height="100%" style="fill:#000;fill-opacity:1"/><use xlink:href="#as" x="55.608" y="697.5" width="100%" height="100%" style="fill:#000;fill-opacity:1"/><g style="fill:#000;fill-opacity:1"><use xlink:href="#s" x="68.712" y="697.5" width="100%" height="100%"/><use xlink:href="#ai" x="76.92" y="697.5" width="100%" height="100%"/></g><g style="fill:#000;fill-opacity:1"><use xlink:href="#M" x="544.2" y="722.1" width="100%" height="100%"/><use xlink:href="#l" x="555.378" y="722.1" width="100%" height="100%"/></g><use xlink:href="#F" x="313.8" y="720.8" width="100%" height="100%" style="fill:#000;fill-opacity:1"/><use xlink:href="#K" x="322.8" y="720.8" width="100%" height="100%" style="fill:#000;fill-opacity:1"/><g style="fill:#000;fill-opacity:1"><use xlink:href="#a" x="244.2" y="722.1" width="100%" height="100%"/><use xlink:href="#W" x="255.108" y="722.1" width="100%" height="100%"/></g><use xlink:href="#f" x="268.086" y="722.1" width="100%" height="100%" style="fill:#000;fill-opacity:1"/><use xlink:href="#P" x="274.782" y="722.1" width="100%" height="100%" style="fill:#000;fill-opacity:1"/><use xlink:href="#av" x="281.568" y="722.1" width="100%" height="100%" style="fill:#000;fill-opacity:1"/><use xlink:href="#q" x="291.756" y="722.1" width="100%" height="100%" style="fill:#000;fill-opacity:1"/><use xlink:href="#aN" x="23.1" y="720.8" width="100%" height="100%" style="fill:#000;fill-opacity:1"/><use xlink:href="#K" x="32.1" y="720.8" width="100%" height="100%" style="fill:#000;fill-opacity:1"/><use xlink:href="#F" x="37.806" y="720.8" width="100%" height="100%" style="fill:#000;fill-opacity:1"/><g style="fill:#000;fill-opacity:1"><use xlink:href="#J" x="46.806" y="720.8" width="100%" height="100%"/><use xlink:href="#o" x="55.014" y="720.8" width="100%" height="100%"/><use xlink:href="#C" x="63.222" y="720.8" width="100%" height="100%"/><use xlink:href="#C" x="71.43" y="720.8" width="100%" height="100%"/><use xlink:href="#A" x="79.638" y="720.8" width="100%" height="100%"/><use xlink:href="#B" x="83.742" y="720.8" width="100%" height="100%"/></g><use xlink:href="#L" x="92.742" y="720.8" width="100%" height="100%" style="fill:#000;fill-opacity:1"/><g style="fill:#000;fill-opacity:1"><use xlink:href="#al" x="538.9" y="745.3" width="100%" height="100%"/><use xlink:href="#l" x="555.388" y="745.3" width="100%" height="100%"/></g><g style="fill:#000;fill-opacity:1"><use xlink:href="#r" x="313.8" y="744" width="100%" height="100%"/><use xlink:href="#n" x="325.284" y="744" width="100%" height="100%"/></g><use xlink:href="#A" x="334.284" y="744" width="100%" height="100%" style="fill:#000;fill-opacity:1"/><g style="fill:#000;fill-opacity:1"><use xlink:href="#J" x="338.28" y="744" width="100%" height="100%"/><use xlink:href="#n" x="346.488" y="744" width="100%" height="100%"/></g><g style="fill:#000;fill-opacity:1"><use xlink:href="#d" x="242" y="745.3" width="100%" height="100%"/><use xlink:href="#H" x="253.196" y="745.3" width="100%" height="100%"/></g><use xlink:href="#e" x="266.174" y="745.3" width="100%" height="100%" style="fill:#000;fill-opacity:1"/><g style="fill:#000;fill-opacity:1"><use xlink:href="#ah" x="273.482" y="745.3" width="100%" height="100%"/><use xlink:href="#q" x="291.788" y="745.3" width="100%" height="100%"/></g><use xlink:href="#C" x="23.1" y="744" width="100%" height="100%" style="fill:#000;fill-opacity:1"/><use xlink:href="#m" x="31.2" y="744" width="100%" height="100%" style="fill:#000;fill-opacity:1"/><g style="fill:#000;fill-opacity:1"><use xlink:href="#s" x="36.186" y="744" width="100%" height="100%"/><use xlink:href="#w" x="44.394" y="744" width="100%" height="100%"/></g><g style="fill:#000;fill-opacity:1"><use xlink:href="#ai" x="53.394" y="744" width="100%" height="100%"/><use xlink:href="#o" x="57.498" y="744" width="100%" height="100%"/></g><use xlink:href="#u" x="529" y="768.6" width="100%" height="100%" style="fill:#000;fill-opacity:1"/><use xlink:href="#aQ" x="544.3" y="768.6" width="100%" height="100%" style="fill:#000;fill-opacity:1"/><use xlink:href="#ao" x="551.086" y="768.6" width="100%" height="100%" style="fill:#000;fill-opacity:1"/><g style="fill:#000;fill-opacity:1"><use xlink:href="#s" x="313.8" y="767.3" width="100%" height="100%"/><use xlink:href="#C" x="322.008" y="767.3" width="100%" height="100%"/></g><use xlink:href="#aG" x="240.8" y="768.6" width="100%" height="100%" style="fill:#000;fill-opacity:1"/><use xlink:href="#aR" x="262.202" y="768.6" width="100%" height="100%" style="fill:#000;fill-opacity:1"/><use xlink:href="#P" x="279.176" y="768.6" width="100%" height="100%" style="fill:#000;fill-opacity:1"/><use xlink:href="#av" x="285.872" y="768.6" width="100%" height="100%" style="fill:#000;fill-opacity:1"/><use xlink:href="#T" x="296.06" y="768.6" width="100%" height="100%" style="fill:#000;fill-opacity:1"/><use xlink:href="#C" x="23.1" y="767.3" width="100%" height="100%" style="fill:#000;fill-opacity:1"/><g style="fill:#000;fill-opacity:1"><use xlink:href="#Z" x="31.002" y="767.3" width="100%" height="100%"/><use xlink:href="#as" x="39.21" y="767.3" width="100%" height="100%"/></g><use xlink:href="#aN" x="52.314" y="767.3" width="100%" height="100%" style="fill:#000;fill-opacity:1"/><use xlink:href="#s" x="61.314" y="767.3" width="100%" height="100%" style="fill:#000;fill-opacity:1"/><use xlink:href="#m" x="69.414" y="767.3" width="100%" height="100%" style="fill:#000;fill-opacity:1"/><use xlink:href="#n" x="74.4" y="767.3" width="100%" height="100%" style="fill:#000;fill-opacity:1"/><use xlink:href="#Z" x="83.094" y="767.3" width="100%" height="100%" style="fill:#000;fill-opacity:1"/><use xlink:href="#aS" x="294.8" y="803.9" width="100%" height="100%" style="fill:#000;fill-opacity:1"/></svg>